<?xml version="1.0" encoding="utf-8"?>
<!-- Generator: Adobe Illustrator 24.1.1, SVG Export Plug-In . SVG Version: 6.00 Build 0)  -->
<svg version="1.1" id="Layer_1" xmlns="http://www.w3.org/2000/svg" xmlns:xlink="http://www.w3.org/1999/xlink" x="0px" y="0px"
	 viewBox="0 0 512 512" style="enable-background:new 0 0 512 512;" xml:space="preserve">
<style type="text/css">
	.st0{fill:#2684FF;}
	.st1{fill:url(#SVGID_1_);}
</style>
<g>
	<path class="st0" d="M459,203C459,90.9,368.1,0,256,0C156-0.1,70.9,72.5,55.3,171.2c-15.6,98.7,42.9,194.1,138,224.8v101.7
		c0,7.9,6.4,14.3,14.3,14.3h96.4c7.9,0,14.3-6.4,14.3-14.3V396.1C402,369.1,458.9,291.1,459,203z M256,271.6
		c-37.9,0-68.6-30.7-68.6-68.6c0-37.9,30.7-68.6,68.6-68.6c37.9,0,68.6,30.7,68.6,68.6C324.6,240.9,293.9,271.6,256,271.6z"/>
	
		<linearGradient id="SVGID_1_" gradientUnits="userSpaceOnUse" x1="-0.457" y1="516.2191" x2="1.1349" y2="516.2191" gradientTransform="matrix(4.256434e-15 -135.4573 69.5128 8.294367e-15 -35526.2461 297.4929)">
		<stop  offset="0" style="stop-color:#0052CC"/>
		<stop  offset="0.18" style="stop-color:#0052CC"/>
		<stop  offset="1" style="stop-color:#2684FF"/>
	</linearGradient>
	<path class="st1" d="M256,0v134.4c37.9,0,68.6,30.7,68.6,68.6c0,37.9-30.7,68.6-68.6,68.6c16.6,0,32.6,6.6,44.4,18.4
		c11.8,11.8,18.4,27.7,18.4,44.4v61.7c95.1-30.8,153.7-126.2,138-224.9C441.1,72.5,355.9-0.1,256,0z"/>
</g>
</svg>
