<svg xmlns="http://www.w3.org/2000/svg" width="px" height="px" viewBox="0 0 384 384"><defs><linearGradient id="a" gradientUnits="userSpaceOnUse" x1="5.809" y1="506.004" x2="7.173" y2="506.004" gradientTransform="matrix(0 120.43665 120.43665 0 -60749.543 -591.527)"><stop offset="0" style="stop-color:#70b0df;stop-opacity:1"/><stop offset=".5" style="stop-color:#1b81c5;stop-opacity:1"/><stop offset="1" style="stop-color:#4a98ce;stop-opacity:1"/></linearGradient></defs><path style="stroke:none;fill-rule:nonzero;fill:#8c96a1;fill-opacity:1" d="M37.816 188.316.352 272.191h24.52l7.257-17.785H69.8l7.261 17.785h24.415l-37.563-83.875Zm13.258 19.786 6.317 16 6.312 15.996H38.445l6.317-15.996ZM219.344 188.316l-37.461 83.875h24.515l7.262-17.785h37.672l7.262 17.785h24.515l-37.558-83.875Zm13.367 19.786 6.312 16 6.317 15.996h-25.262l6.317-15.996ZM289.54 188.004h27.776l17.786 26.832 18.84-26.832h27.464l-33.047 40.723 35.153 43.777h-27.778l-20.207-28.52-19.785 28.52h-29.676l35.782-43.356ZM171.887 152.535l-33.258 32.73 11.469 10.419 10.836-10.946h1.261v62.516c0 7.887-6.422 14.309-14.308 14.309h-11.364c-7.89 0-14.312-6.422-14.312-14.31v-6.632h-22.102v8.313c0 14.308 11.575 25.89 25.891 25.89h29.469c14.308 0 25.89-11.574 25.89-25.89v-64.09h.84l12.63 10.84 9.995-10.418Zm0 0"/><path style="stroke:none;fill-rule:nonzero;fill:#8c96a1;fill-opacity:1" d="M110.746 233.773 144 201.051l-11.469-10.414-10.836 10.941h-1.261v-62.512c0-7.89 6.421-14.312 14.312-14.312h11.363c7.887 0 14.309 6.422 14.309 14.312v6.63h22.102v-8.31c0-14.312-11.57-25.89-25.891-25.89h-29.465c-14.312 0-25.89 11.57-25.89 25.89v64.087h-.84L87.8 190.637l-9.996 10.414Zm0 0"/><path style="stroke:none;fill-rule:nonzero;fill:url(#a)" d="M127.477 109.387c-14.309 0-25.891 11.574-25.891 25.89v64.086h-.84l-12.629-10.836-9.996 10.418 32.73 32.73 33.254-32.73-11.468-10.418L121.8 199.47h-1.156v-62.512c0-7.89 6.421-14.309 14.308-14.309h11.363c7.891 0 14.313 6.418 14.313 14.309v6.629h22.101v-8.309c0-14.308-11.574-25.89-25.89-25.89Zm44.41 41.152-33.258 32.73 11.469 10.418 10.836-10.94h1.261v62.503c0 7.89-6.422 14.309-14.308 14.309h-11.364c-7.89 0-14.312-6.418-14.312-14.309v-6.629h-22.102v8.309c0 14.308 11.575 25.89 25.891 25.89h29.469c14.308 0 25.89-11.574 25.89-25.89v-64.086h.84l12.63 10.836 9.995-10.418ZM289.539 186l32.309 41.04-35.887 43.358h29.676l19.785-28.515 20.207 28.515h27.883l-35.145-43.777L381.407 186h-27.36l-18.945 26.73L317.316 186Zm-251.723.316L.352 270.187h24.52l7.257-17.78H69.8l7.261 17.78h24.415l-37.563-83.87Zm181.528 0-37.461 83.871h24.515l7.262-17.78h37.672l7.262 17.78h24.515l-37.558-83.87Zm-168.27 19.786 6.317 15.996 6.312 15.996H38.445l6.317-15.996Zm181.637 0 6.312 15.996 6.317 15.996h-25.262Zm0 0"/><path style="stroke:none;fill-rule:nonzero;fill:#0c4c75;fill-opacity:1" d="M127.477 109.387v-.211c-7.258 0-13.786 2.949-18.516 7.683-4.734 4.73-7.68 11.254-7.68 18.516v63.879h-.527L88.02 188.309 77.7 199.05l33.152 33.148 33.671-33.148-11.894-10.735-10.941 11.047h-.84V137.07c0-7.785 6.316-14.101 14.101-14.101h11.36c7.785 0 14.101 6.316 14.101 14.101v6.946h22.63v-8.528c0-7.261-2.95-13.785-7.68-18.52-4.735-4.73-11.258-7.679-18.52-7.679H127.37v.316h29.469c14.207 0 25.68 11.47 25.68 25.68v8.102h-21.676v-6.422c0-3.996-1.574-7.68-4.313-10.313-2.633-2.632-6.312-4.312-10.312-4.312h-11.36c-4 0-7.683 1.574-10.312 4.312-2.633 2.633-4.313 6.317-4.313 10.313v62.828h1.575l10.73-10.84 11.047 10-32.938 32.414-32.414-32.414 9.575-10 12.527 10.734h1.152v-64.402c0-14.207 11.469-25.68 25.684-25.68v-.21h.305Zm44.41 41.152-.211-.21-33.465 32.94 11.894 10.735 10.942-11.05h.84v62.296c0 7.785-6.313 14.102-14.098 14.102h-11.363c-7.785 0-14.102-6.317-14.102-14.102v-6.945H99.7v8.527c0 7.262 2.946 13.785 7.68 18.52 4.73 4.73 11.258 7.68 18.516 7.68h29.468c7.258 0 13.785-2.95 18.516-7.68 4.734-4.735 7.68-11.258 7.68-18.52v-63.879h.527l12.734 10.945 10.313-10.734-33.149-33.148-.21.21.113.313-.211.211 32.52 32.52-9.579 9.996-12.523-10.73h-1.156v64.401c0 14.204-11.47 25.68-25.68 25.68h-29.469c-14.203 0-25.68-11.469-25.68-25.68v-8.101h21.676v6.414c0 3.996 1.574 7.68 4.313 10.313 2.632 2.632 6.316 4.312 10.312 4.312h11.363c3.997 0 7.68-1.574 10.313-4.313 2.633-2.632 4.312-6.316 4.312-10.312v-62.828h-1.574l-10.734 10.84-11.047-10 33.156-32.512-.312-.21-.211.21ZM289.539 186l-.21.21 32.202 40.935-36.097 43.671h30.308l19.68-28.41 20.101 28.41h28.516l-35.363-44.09 33.254-40.937h-28.094l-18.734 26.52-17.68-26.52h-28.516l.317.422.316-.211v.21h27.672l17.89 26.938 18.946-26.937h26.726l-32.832 40.41 34.934 43.566h-27.148l-20.207-28.734-19.891 28.734h-29.047l35.574-43.148-32.52-41.25-.097.211v.21Zm-251.723.316-.21-.105L.038 270.398h25.04l7.26-17.785h37.263l7.257 17.785h25.043L64.125 186h-26.52l-.105.105.316.211v.207H63.81l37.359 83.348H77.281L70.02 252.09H31.922L24.66 269.87H.668l37.254-83.555h-.106v.207Zm181.528 0-.207-.105-37.57 84.187h25.042l7.262-17.785h37.25l7.262 17.785h25.148L245.761 186h-26.523l-.101.105.207.211v.207h25.996l37.36 83.348h-23.891l-7.258-17.781h-37.988L206.3 269.87h-23.887l37.254-83.555h-.324v.207Zm-168.27 19.786-.21.101 6.316 16 6.21 15.578H38.763l6.207-15.683 6.316-15.996h-.21l-.212.101.211-.101-.21-.106-6.313 15.996-6.422 16.313H64.23l-6.527-16.313-6.629-16.523-.21.633Zm181.637 0-.211.101 6.316 16 6.207 15.578h-24.628l6.21-15.683 6.317-15.996h-.211l-.211.101.21-.101-.21-.106-6.316 15.996-6.418 16.313h26.097l-6.523-16.313-6.63-16.523-.21.633Zm0 0"/></svg>