<svg xmlns="http://www.w3.org/2000/svg" width="px" height="px" viewBox="0 0 384 384"><path style="stroke:none;fill-rule:nonzero;fill:#563d7c;fill-opacity:1" d="M0 334.5C0 361.875 22.2 384 49.5 384h285c27.375 0 49.5-22.2 49.5-49.5v-285C384 22.125 361.8 0 334.5 0h-285C22.2 0 0 22.2 0 49.5Zm0 0"/><path style="stroke:none;fill-rule:nonzero;fill:#fff;fill-opacity:1" d="M159.227 169.875V115.5h47.847c4.574 0 8.926.375 13.2 1.125 4.203.75 7.953 2.102 11.25 4.05 3.226 1.95 5.851 4.65 7.8 8.177 1.95 3.449 2.926 7.949 2.926 13.347 0 9.75-2.926 16.801-8.773 21.153-5.852 4.347-13.352 6.523-22.5 6.523ZM108.074 75.75v232.5h112.653c10.421 0 20.546-1.273 30.449-3.898 9.898-2.625 18.676-6.602 26.398-12.079 7.727-5.398 13.875-12.449 18.375-21 4.5-8.546 6.824-18.75 6.824-30.449 0-14.55-3.523-27-10.574-37.273-7.05-10.278-17.699-17.551-32.023-21.676 10.426-5.023 18.3-11.398 23.625-19.2 5.324-7.8 7.949-17.55 7.949-29.323 0-10.875-1.8-19.954-5.398-27.375-3.602-7.352-8.625-13.278-15.153-17.778-6.523-4.5-14.324-7.648-23.472-9.597-9.153-1.954-19.204-2.926-30.301-2.926H108.074Zm51.153 192.75v-63.824h55.648c11.102 0 19.95 2.55 26.7 7.648 6.75 5.102 10.124 13.653 10.124 25.574 0 6.079-1.05 11.102-3.074 15-2.102 3.903-4.8 6.977-8.324 9.301-3.45 2.25-7.5 3.903-12.074 4.875-4.579.977-9.301 1.5-14.329 1.5h-54.671Zm0 0"/></svg>