<svg xmlns="http://www.w3.org/2000/svg" width="px" height="px" viewBox="0 0 384 384"><path style="stroke:none;fill-rule:nonzero;fill:#ff6c2c;fill-opacity:1" d="M30.3 171.367h22.934l-3.578 13.567c-.523 1.89-1.574 3.367-3.05 4.523-1.47 1.156-3.262 1.68-5.153 1.68H30.832c-2.422 0-4.629.734-6.418 2.11-1.89 1.362-3.16 3.366-3.894 5.78-.418 1.786-.524 3.578-.106 5.153.422 1.574 1.05 3.054 2.004 4.312.945 1.262 2.21 2.211 3.684 2.95a10.936 10.936 0 0 0 4.835 1.152h6.524c1.262 0 2.215.527 2.95 1.472.734.946.944 2.106.628 3.262l-4.102 15.043h-7.05c-4.836 0-9.36-1.047-13.461-3.156A30.664 30.664 0 0 1 6.219 220.8c-2.739-3.473-4.524-7.473-5.574-11.992-.946-4.524-.84-9.153.316-13.891l.418-1.469c.84-3.265 2.215-6.21 4.105-8.941 1.887-2.738 4.102-5.047 6.63-6.946 2.527-1.898 5.363-3.472 8.413-4.523 3.149-1.043 6.414-1.672 9.774-1.672M41.871 232.484l19.988-74.797c.528-1.89 1.575-3.367 3.055-4.523 1.469-1.152 3.156-1.68 5.152-1.68h21.141c4.84 0 9.36 1.051 13.465 3.157a30.76 30.76 0 0 1 10.207 8.418c2.734 3.472 4.52 7.468 5.57 11.992 1.051 4.523.84 9.148-.418 13.89l-.422 1.47a27.636 27.636 0 0 1-4.101 8.94c-1.785 2.735-3.996 5.047-6.524 7.047-2.53 2.004-5.363 3.473-8.418 4.524a30.127 30.127 0 0 1-9.675 1.574H72.594l3.68-13.68c.527-1.785 1.578-3.261 3.054-4.418 1.469-1.152 3.156-1.68 5.152-1.68h5.895c2.422 0 4.629-.734 6.523-2.21 1.891-1.469 3.16-3.367 3.79-5.781.421-1.68.523-3.368.105-4.946-.422-1.574-1.05-3.05-2.004-4.312a10.47 10.47 0 0 0-3.68-3.051 10.969 10.969 0 0 0-4.84-1.156H78.907l-14.832 55.02c-.527 1.784-1.578 3.265-3.054 4.417-1.47 1.156-3.157 1.68-5.047 1.68H41.87ZM168.227 192.613l.312-1.152c.106-.527 0-.945-.21-1.367-.313-.418-.735-.524-1.259-.524h-32.925c-1.364 0-2.739-.316-3.891-.945-1.156-.629-2.11-1.363-2.844-2.422a7.507 7.507 0 0 1-1.469-3.367c-.316-1.262-.21-2.633.106-4l2-7.68h44.601c2.739 0 5.258.633 7.579 1.785 2.316 1.262 4.207 2.844 5.675 4.735 1.47 2 2.528 4.207 3.157 6.734.527 2.528.527 5.153-.106 7.89l-7.992 29.774c-.84 3.055-2.422 5.469-4.945 7.367-2.422 1.887-5.254 2.84-8.414 2.84l-32.926-.105c-2.946 0-5.57-.63-7.992-1.887a18.507 18.507 0 0 1-6-4.945c-1.575-2.106-2.633-4.418-3.262-7.047-.633-2.633-.527-5.363.207-8.207l.422-1.469c.418-1.89 1.258-3.684 2.422-5.258 1.156-1.574 2.422-3.054 3.89-4.207 1.473-1.156 3.16-2.004 4.946-2.738 1.785-.629 3.785-.945 5.78-.945h27.669l-2.004 7.574c-.524 1.785-1.574 3.262-3.05 4.418-1.47 1.156-3.157 1.68-5.048 1.68h-12.414c-1.156 0-1.89.527-2.21 1.68-.212.734-.106 1.366.417 2.003.422.524 1.051.84 1.785.84h19.989c.734 0 1.363-.211 1.89-.629.524-.422.84-.945 1.051-1.578l.207-.84ZM227.242 171.367c4.942 0 9.465 1.051 13.567 3.156a30.682 30.682 0 0 1 10.207 8.418c2.738 3.473 4.523 7.575 5.574 12.098.945 4.52.84 9.149-.418 13.887l-5.05 19.043c-.313 1.367-1.048 2.422-2.212 3.265-1.156.84-2.316 1.258-3.683 1.258h-11.153c-1.258 0-2.316-.523-3.05-1.469-.735-.945-.946-2.109-.633-3.261l6.105-23.043c.422-1.68.527-3.367.106-4.942-.418-1.574-1.051-3.05-2-4.312a10.442 10.442 0 0 0-3.684-3.05 10.89 10.89 0 0 0-4.84-1.157h-11.351l-9.79 36.816c-.316 1.367-1.05 2.422-2.21 3.262-1.157.84-2.426 1.262-3.79 1.262h-10.835c-1.262 0-2.215-.524-2.95-1.47-.734-.944-.945-2.108-.629-3.265l15.043-56.39h27.668v-.106ZM286.898 190.727c-.84.628-1.367 1.468-1.68 2.527l-4.523 17.25c-.316.945-.105 1.785.524 2.633.633.84 1.367 1.258 2.422 1.258h41.98l-3.262 12.097c-.527 1.785-1.578 3.262-3.054 4.418-1.47 1.156-3.157 1.68-5.047 1.68h-38.192c-2.738 0-5.257-.63-7.574-1.785-2.316-1.157-4.207-2.739-5.676-4.73-1.472-2.005-2.527-4.212-3.16-6.84-.523-2.532-.523-5.157.211-7.786l6.211-23.043a20.714 20.714 0 0 1 3.156-6.945 20.43 20.43 0 0 1 5.047-5.36c1.89-1.472 4.106-2.632 6.528-3.472a22.315 22.315 0 0 1 7.468-1.262h26.828c2.739 0 5.258.63 7.575 1.785 2.316 1.262 4.207 2.844 5.68 4.735 1.468 2 2.527 4.207 3.05 6.84.524 2.527.418 5.152-.21 7.785l-1.786 6.941c-.84 3.055-2.422 5.469-4.941 7.367-2.422 1.89-5.258 2.739-8.309 2.739h-30.512l2.004-7.473c.418-1.785 1.469-3.262 2.946-4.414 1.472-1.156 3.16-1.684 5.152-1.684h12.414c1.156 0 1.89-.523 2.21-1.68l.423-1.468c.21-.735.105-1.363-.422-2.004-.524-.629-1.05-.945-1.785-.945h-18.832c-1.078-.118-2.024.195-2.864.836M325.402 232.484 345.81 156c.316-1.363 1.05-2.422 2.214-3.262 1.153-.84 2.422-1.261 3.786-1.261h10.84c1.257 0 2.316.527 3.05 1.472.735.942.946 2.106.63 3.262l-15.255 56.496c-.734 2.95-1.89 5.68-3.578 8.102-1.68 2.421-3.574 4.52-5.894 6.207-2.317 1.683-4.73 3.054-7.575 4.105-2.632.945-5.578 1.363-8.625 1.363M375.898 158.11h.946c.527 0 .84-.106 1.156-.423.316-.21.422-.628.422-.945 0-.418-.106-.84-.422-.945-.316-.211-.629-.313-1.262-.313h-.941v2.63h.101Zm4-1.368c0 .524-.105.946-.421 1.262-.313.312-.63.629-1.051.84l2.215 3.68h-1.575l-1.89-3.262h-1.262v3.261h-1.363v-8.203h2.422c1.05 0 1.785.211 2.21.63.391.323.715.952.715 1.792m-8.843 1.68c0 1.05.316 2.11.84 2.95a5.609 5.609 0 0 0 2.214 2.21c.942.527 1.887.84 2.946.84 1.058 0 2.11-.313 2.949-.84a5.574 5.574 0 0 0 2.21-2.21c.524-.946.84-1.892.84-2.95a5.654 5.654 0 0 0-.84-2.945 5.634 5.634 0 0 0-2.21-2.215c-.945-.524-1.89-.84-2.95-.84a5.654 5.654 0 0 0-2.945.84 5.618 5.618 0 0 0-2.214 2.215 5.42 5.42 0 0 0-.84 2.945m-.946 0c0-1.258.317-2.422.946-3.473a7.25 7.25 0 0 1 2.527-2.527 6.654 6.654 0 0 1 3.473-.945c1.261 0 2.422.316 3.472.945a7.25 7.25 0 0 1 2.528 2.527c.636 1.059.945 2.215.945 3.473 0 1.262-.316 2.316-.945 3.367a7.25 7.25 0 0 1-2.528 2.527c-1.05.633-2.21.946-3.578.946-1.258 0-2.422-.313-3.578-.946a7.315 7.315 0 0 1-2.527-2.527c-.418-1.05-.735-2.203-.735-3.367"/></svg>