<?xml version="1.0" encoding="utf-8"?>
<!-- Generator: Adobe Illustrator 24.3.0, SVG Export Plug-In . SVG Version: 6.00 Build 0)  -->
<svg version="1.1" id="Layer_1" xmlns="http://www.w3.org/2000/svg" xmlns:xlink="http://www.w3.org/1999/xlink" x="0px" y="0px"
	 viewBox="0 0 512 512" style="enable-background:new 0 0 512 512;" xml:space="preserve">
<style type="text/css">
	.st0{fill:#FF6C2C;}
</style>
<g id="XMLID_1_">
	<path id="XMLID_7_" class="st0" d="M40.4,228.49h30.58l-4.77,18.09c-0.7,2.52-2.1,4.49-4.07,6.03c-1.96,1.54-4.35,2.24-6.87,2.24
		H41.11c-3.23,0-6.17,0.98-8.56,2.81c-2.52,1.82-4.21,4.49-5.19,7.71c-0.56,2.38-0.7,4.77-0.14,6.87s1.4,4.07,2.67,5.75
		c1.26,1.68,2.95,2.95,4.91,3.93c1.96,0.98,4.21,1.54,6.45,1.54h8.7c1.68,0,2.95,0.7,3.93,1.96c0.98,1.26,1.26,2.81,0.84,4.35
		l-5.47,20.06h-9.4c-6.45,0-12.48-1.4-17.95-4.21s-9.96-6.59-13.61-11.22c-3.65-4.63-6.03-9.96-7.43-15.99
		c-1.26-6.03-1.12-12.2,0.42-18.52l0.56-1.96c1.12-4.35,2.95-8.28,5.47-11.92c2.52-3.65,5.47-6.73,8.84-9.26s7.15-4.63,11.22-6.03
		C31.57,229.33,35.92,228.49,40.4,228.49"/>
	<path id="XMLID_8_" class="st0" d="M55.83,309.98l26.65-99.73c0.7-2.52,2.1-4.49,4.07-6.03c1.96-1.54,4.21-2.24,6.87-2.24h28.19
		c6.45,0,12.48,1.4,17.95,4.21c5.47,2.81,9.96,6.59,13.61,11.22c3.65,4.63,6.03,9.96,7.43,15.99c1.4,6.03,1.12,12.2-0.56,18.52
		l-0.56,1.96c-1.12,4.35-2.95,8.28-5.47,11.92c-2.38,3.65-5.33,6.73-8.7,9.4c-3.37,2.67-7.15,4.63-11.22,6.03
		c-4.21,1.4-8.42,2.1-12.9,2.1H96.79l4.91-18.24c0.7-2.38,2.1-4.35,4.07-5.89c1.96-1.54,4.21-2.24,6.87-2.24h7.86
		c3.23,0,6.17-0.98,8.7-2.95c2.52-1.96,4.21-4.49,5.05-7.71c0.56-2.24,0.7-4.49,0.14-6.59c-0.56-2.1-1.4-4.07-2.67-5.75
		c-1.26-1.68-2.95-3.09-4.91-4.07c-1.96-0.98-4.21-1.54-6.45-1.54h-15.15l-19.78,73.36c-0.7,2.38-2.1,4.35-4.07,5.89
		c-1.96,1.54-4.21,2.24-6.73,2.24h-18.8V309.98z"/>
	<path id="XMLID_9_" class="st0" d="M224.3,256.82l0.42-1.54c0.14-0.7,0-1.26-0.28-1.82c-0.42-0.56-0.98-0.7-1.68-0.7h-43.9
		c-1.82,0-3.65-0.42-5.19-1.26c-1.54-0.84-2.81-1.82-3.79-3.23c-0.98-1.26-1.68-2.81-1.96-4.49c-0.42-1.68-0.28-3.51,0.14-5.33
		l2.67-10.24h59.47c3.65,0,7.01,0.84,10.1,2.38c3.09,1.68,5.61,3.79,7.57,6.31c1.96,2.67,3.37,5.61,4.21,8.98
		c0.7,3.37,0.7,6.87-0.14,10.52l-10.66,39.7c-1.12,4.07-3.23,7.29-6.59,9.82c-3.23,2.52-7.01,3.79-11.22,3.79l-43.9-0.14
		c-3.93,0-7.43-0.84-10.66-2.52c-3.23-1.68-5.89-3.93-8-6.59c-2.1-2.81-3.51-5.89-4.35-9.4c-0.84-3.51-0.7-7.15,0.28-10.94
		l0.56-1.96c0.56-2.52,1.68-4.91,3.23-7.01c1.54-2.1,3.23-4.07,5.19-5.61s4.21-2.67,6.59-3.65c2.38-0.84,5.05-1.26,7.71-1.26h36.89
		l-2.67,10.1c-0.7,2.38-2.1,4.35-4.07,5.89c-1.96,1.54-4.21,2.24-6.73,2.24h-16.55c-1.54,0-2.52,0.7-2.95,2.24
		c-0.28,0.98-0.14,1.82,0.56,2.67c0.56,0.7,1.4,1.12,2.38,1.12h26.65c0.98,0,1.82-0.28,2.52-0.84s1.12-1.26,1.4-2.1l0.28-1.12
		L224.3,256.82z"/>
	<path id="XMLID_10_" class="st0" d="M302.99,228.49c6.59,0,12.62,1.4,18.09,4.21c5.47,2.81,9.96,6.59,13.61,11.22
		s6.03,10.1,7.43,16.13c1.26,6.03,1.12,12.2-0.56,18.52l-6.73,25.39c-0.42,1.82-1.4,3.23-2.95,4.35c-1.54,1.12-3.09,1.68-4.91,1.68
		h-14.87c-1.68,0-3.09-0.7-4.07-1.96c-0.98-1.26-1.26-2.81-0.84-4.35l8.14-30.72c0.56-2.24,0.7-4.49,0.14-6.59s-1.4-4.07-2.67-5.75
		c-1.26-1.68-2.95-3.09-4.91-4.07c-1.96-0.98-4.21-1.54-6.45-1.54H286.3l-13.05,49.09c-0.42,1.82-1.4,3.23-2.95,4.35
		c-1.54,1.12-3.23,1.68-5.05,1.68h-14.45c-1.68,0-2.95-0.7-3.93-1.96c-0.98-1.26-1.26-2.81-0.84-4.35l20.06-75.19h36.89V228.49z"/>
	<path id="XMLID_11_" class="st0" d="M382.53,254.3c-1.12,0.84-1.82,1.96-2.24,3.37l-6.03,23c-0.42,1.26-0.14,2.38,0.7,3.51
		c0.84,1.12,1.82,1.68,3.23,1.68h55.97l-4.35,16.13c-0.7,2.38-2.1,4.35-4.07,5.89c-1.96,1.54-4.21,2.24-6.73,2.24h-50.92
		c-3.65,0-7.01-0.84-10.1-2.38c-3.09-1.54-5.61-3.65-7.57-6.31c-1.96-2.67-3.37-5.61-4.21-9.12c-0.7-3.37-0.7-6.87,0.28-10.38
		l8.28-30.72c0.84-3.37,2.24-6.45,4.21-9.26c1.82-2.81,4.07-5.19,6.73-7.15c2.52-1.96,5.47-3.51,8.7-4.63
		c3.23-1.12,6.45-1.68,9.96-1.68h35.77c3.65,0,7.01,0.84,10.1,2.38c3.09,1.68,5.61,3.79,7.57,6.31c1.96,2.67,3.37,5.61,4.07,9.12
		c0.7,3.37,0.56,6.87-0.28,10.38l-2.38,9.26c-1.12,4.07-3.23,7.29-6.59,9.82c-3.23,2.52-7.01,3.65-11.08,3.65h-40.68l2.67-9.96
		c0.56-2.38,1.96-4.35,3.93-5.89c1.96-1.54,4.21-2.24,6.87-2.24h16.55c1.54,0,2.52-0.7,2.95-2.24l0.56-1.96
		c0.28-0.98,0.14-1.82-0.56-2.67c-0.7-0.84-1.4-1.26-2.38-1.26h-25.11C384.91,253.03,383.65,253.45,382.53,254.3"/>
	<path id="XMLID_12_" class="st0" d="M433.87,309.98l27.21-101.98c0.42-1.82,1.4-3.23,2.95-4.35c1.54-1.12,3.23-1.68,5.05-1.68
		h14.45c1.68,0,3.09,0.7,4.07,1.96c0.98,1.26,1.26,2.81,0.84,4.35l-20.34,75.33c-0.98,3.93-2.52,7.57-4.77,10.8
		c-2.24,3.23-4.77,6.03-7.86,8.28c-3.09,2.24-6.31,4.07-10.1,5.47C441.86,309.42,437.93,309.98,433.87,309.98"/>
	<path id="XMLID_17_" class="st0" d="M501.2,210.81h1.26c0.7,0,1.12-0.14,1.54-0.56c0.42-0.28,0.56-0.84,0.56-1.26
		c0-0.56-0.14-1.12-0.56-1.26c-0.42-0.28-0.84-0.42-1.68-0.42h-1.26v3.51H501.2z M506.53,208.99c0,0.7-0.14,1.26-0.56,1.68
		c-0.42,0.42-0.84,0.84-1.4,1.12l2.95,4.91h-2.1l-2.52-4.35h-1.68v4.35h-1.82v-10.94h3.23c1.4,0,2.38,0.28,2.95,0.84
		C506.1,207.03,506.53,207.87,506.53,208.99 M494.74,211.23c0,1.4,0.42,2.81,1.12,3.93c0.7,1.26,1.68,2.24,2.95,2.95
		c1.26,0.7,2.52,1.12,3.93,1.12s2.81-0.42,3.93-1.12c1.26-0.7,2.24-1.68,2.95-2.95c0.7-1.26,1.12-2.52,1.12-3.93
		s-0.42-2.81-1.12-3.93c-0.7-1.26-1.68-2.24-2.95-2.95c-1.26-0.7-2.52-1.12-3.93-1.12s-2.81,0.42-3.93,1.12
		c-1.26,0.7-2.24,1.68-2.95,2.95C495.16,208.43,494.74,209.69,494.74,211.23 M493.48,211.23c0-1.68,0.42-3.23,1.26-4.63
		c0.84-1.4,1.96-2.52,3.37-3.37c1.4-0.84,2.95-1.26,4.63-1.26c1.68,0,3.23,0.42,4.63,1.26c1.4,0.84,2.52,1.96,3.37,3.37
		s1.26,2.95,1.26,4.63s-0.42,3.09-1.26,4.49c-0.84,1.4-1.96,2.52-3.37,3.37c-1.4,0.84-2.95,1.26-4.77,1.26
		c-1.68,0-3.23-0.42-4.77-1.26c-1.4-0.84-2.52-1.96-3.37-3.37C493.9,214.32,493.48,212.78,493.48,211.23"/>
</g>
</svg>
