<svg xmlns="http://www.w3.org/2000/svg" width="px" height="px" viewBox="0 0 384 384"><path style="stroke:none;fill-rule:nonzero;fill:#1f72b5;fill-opacity:1" d="M80.746 353.176 56.004 75.414h271.992L303.254 353.07 191.789 384Zm0 0"/><path style="stroke:none;fill-rule:nonzero;fill:#51a3dc;fill-opacity:1" d="m192 360.426 90.031-24.957 21.223-237.34H192Zm0 0"/><path style="stroke:none;fill-rule:nonzero;fill:#ebebeb;fill-opacity:1" d="m103.574 162.238-3.308-32.105h183.468l-2.132 37.23-77.551 34.239h74.347l-8 105.597-74.984 20.16-77.762-18.875-4.8-53.55h34.351l1.918 28.265 45.008 8.43 41.605-12.8 1.918-45.227H109.867l-2.347-33.598L192 162.988Zm0 0"/><path style="stroke:none;fill-rule:nonzero;fill:#cecece;fill-opacity:1" d="m107.52 200.004 2.347 33.598H192v-70.614ZM149.121 283.2l-1.918-28.266h-34.351l4.8 53.55L192 326.504v-35.3Zm0 0"/><path style="stroke:none;fill-rule:nonzero;fill:#cecece;fill-opacity:1" d="m100.266 130.133 3.308 32.105 88.426.75v-32.855Zm0 0"/><path style="stroke:none;fill-rule:nonzero;fill:#000;fill-opacity:1" d="M217.598 12.8V0h-51.196v29.863h35.2v9.602h-36.274v11.738h51.203V20.266H180.27V12.8ZM124.8 30.188v9.277h36.27v11.738h-51.203V0h50.13v12.8H124.8ZM274.133 12.8V0H222.93v29.863h35.207v9.602h-36.274v11.738h51.203V20.266h-36.27V12.8Zm0 0"/></svg>