<svg xmlns="http://www.w3.org/2000/svg" width="px" height="px" viewBox="0 0 384 384"><path style="stroke:none;fill-rule:nonzero;fill:#0acf83;fill-opacity:1" d="M128.004 384C163.328 384 192 355.336 192 320.004v-64h-63.996c-35.328 0-64 28.668-64 64S92.676 384 128.004 384Zm0 0"/><path style="stroke:none;fill-rule:nonzero;fill:#a259ff;fill-opacity:1" d="M63.996 192c0-35.324 28.668-63.996 64-63.996H192v128h-63.996c-35.328-.008-64.008-28.68-64.008-64.004Zm0 0"/><path style="stroke:none;fill-rule:nonzero;fill:#f24e1e;fill-opacity:1" d="M63.996 63.996c0-35.332 28.676-63.996 64-63.996H192v128.004h-63.996c-35.328 0-64.008-28.68-64.008-64.008Zm0 0"/><path style="stroke:none;fill-rule:nonzero;fill:#ff7262;fill-opacity:1" d="M192 0h63.996c35.328 0 64 28.664 64 63.996s-28.668 64-64 64H192Zm0 0"/><path style="stroke:none;fill-rule:nonzero;fill:#1abcfe;fill-opacity:1" d="M301.246 146.746c-24.996-24.992-65.516-24.992-90.508 0-24.992 24.992-24.992 65.516 0 90.508 24.992 24.992 65.512 24.992 90.508 0 24.992-24.992 24.992-65.516 0-90.508Zm0 0"/></svg>