<svg xmlns="http://www.w3.org/2000/svg" width="px" height="px" viewBox="0 0 384 384"><path style="stroke:none;fill-rule:nonzero;fill:#de4c36;fill-opacity:1" d="M376.727 174.898 209.102 7.273c-9.676-9.671-25.278-9.671-34.954 0l-34.796 34.801 44.171 44.176c10.278-3.45 22.051-1.125 30.227 7.05 8.25 8.25 10.5 20.098 6.977 30.376l42.597 42.597c10.278-3.523 22.2-1.273 30.375 6.977 11.477 11.477 11.477 30.148 0 41.625-11.472 11.477-30.148 11.477-41.625 0-8.625-8.625-10.8-21.375-6.375-32.023l-39.676-39.676v104.472c2.778 1.426 5.477 3.227 7.801 5.551 11.477 11.477 11.477 30.074 0 41.625-11.472 11.477-30.148 11.477-41.625 0-11.472-11.472-11.472-30.148 0-41.625 2.852-2.847 6.153-4.949 9.602-6.449V141.3c-3.528-1.425-6.75-3.6-9.602-6.448-8.699-8.704-10.8-21.454-6.375-32.176l-43.5-43.574L7.274 174.148c-9.672 9.676-9.672 25.352 0 34.954l167.624 167.625c9.676 9.671 25.278 9.671 34.954 0l166.875-166.875c9.671-9.602 9.671-25.278 0-34.954"/></svg>