<svg xmlns="http://www.w3.org/2000/svg" width="px" height="px" viewBox="0 0 384 384"><path style="stroke:none;fill-rule:nonzero;fill:#e44d26;fill-opacity:1" d="M80.746 353.176 56.004 75.414h271.992L303.254 353.07 191.789 384Zm0 0"/><path style="stroke:none;fill-rule:nonzero;fill:#f16529;fill-opacity:1" d="m192 360.426 90.031-24.957 21.223-237.34H192Zm0 0"/><path style="stroke:none;fill-rule:nonzero;fill:#ebebeb;fill-opacity:1" d="M192 201.172h-45.121l-3.09-34.883H192v-34.02h-85.441l.855 9.06 8.32 93.87H192ZM192 289.598l-.105.113-37.973-10.352-2.453-27.09h-34.14l4.694 53.438 69.872 19.41.105-.105Zm0 0"/><path style="stroke:none;fill-rule:nonzero;fill:#000;fill-opacity:1" d="M81.277 0H98.56v17.07h15.785V0h17.281v51.734h-17.281V34.352H98.559v17.382H81.277ZM154.453 17.176H139.2V0h47.79v17.176h-15.255v34.558h-17.28ZM194.672 0h18.027l11.094 18.238L234.879 0h18.027v51.734h-17.172V26.13l-11.949 18.45h-.324l-11.945-18.45v25.71h-16.957V0ZM261.547 0h17.281v34.664h24.32v17.07h-41.601Zm0 0"/><path style="stroke:none;fill-rule:nonzero;fill:#fff;fill-opacity:1" d="M191.895 201.172v34.027h41.917l-3.945 44.16-37.972 10.239v35.52l69.757-19.411.532-5.758 8.003-89.605.856-9.172ZM191.895 132.27v34.02h82.238l.75-7.68 1.492-17.282.855-9.058Zm0 0"/></svg>