<svg xmlns="http://www.w3.org/2000/svg" width="px" height="px" viewBox="0 0 375 375"><path style="stroke:none;fill-rule:nonzero;fill:#f7df1e;fill-opacity:1" d="M50.625 50.625h273.75v273.75H50.625Zm0 0"/><path style="stroke:none;fill-rule:nonzero;fill:#000;fill-opacity:1" d="m122.625 279.375 20.926-12.676c4.05 7.2 7.722 13.2 16.5 13.2 8.472 0 13.8-3.297 13.8-16.2v-87.375h25.723v87.824c0 26.625-15.597 38.778-38.398 38.778-20.551 0-32.477-10.653-38.551-23.551M213.602 276.602l20.921-12.153c5.551 9 12.676 15.602 25.352 15.602 10.648 0 17.477-5.324 17.477-12.676 0-8.852-6.977-11.926-18.75-17.102l-6.454-2.773c-18.523-7.875-30.898-17.852-30.898-38.773 0-19.278 14.7-33.977 37.648-33.977 16.352 0 28.125 5.7 36.602 20.55l-20.023 12.825c-4.426-7.875-9.153-11.023-16.5-11.023-7.5 0-12.301 4.796-12.301 11.023 0 7.727 4.8 10.875 15.824 15.602l6.45 2.773c21.902 9.375 34.198 18.898 34.198 40.426 0 23.176-18.222 35.847-42.597 35.847-24 .153-39.45-11.25-46.95-26.171"/></svg>