<svg xmlns="http://www.w3.org/2000/svg" width="px" height="px" viewBox="0 0 384 384"><defs><linearGradient id="a" gradientUnits="userSpaceOnUse" x1="-3.361" y1="509.341" x2="-1.356" y2="509.341" gradientTransform="matrix(-39.22665 40.45335 -40.69155 -38.997 20882.605 20091.215)"><stop offset="0" style="stop-color:#0052cc;stop-opacity:1"/><stop offset=".18" style="stop-color:#0052cc;stop-opacity:1"/><stop offset="1" style="stop-color:#2684ff;stop-opacity:1"/></linearGradient><linearGradient id="b" gradientUnits="userSpaceOnUse" x1="-2.06" y1="509.671" x2="-.055" y2="509.671" gradientTransform="matrix(-45.36 44.10668 -44.3664 -45.09443 22721.102 23259.302)"><stop offset="0" style="stop-color:#0052cc;stop-opacity:1"/><stop offset=".18" style="stop-color:#0052cc;stop-opacity:1"/><stop offset="1" style="stop-color:#2684ff;stop-opacity:1"/></linearGradient></defs><path style="stroke:none;fill-rule:nonzero;fill:#2684ff;fill-opacity:1" d="M367.95 0H183.073a83.451 83.451 0 0 0 24.45 59.023 83.455 83.455 0 0 0 59.027 24.454h34.05v32.847c0 46.051 37.348 83.403 83.399 83.403V15.977C384 7.199 376.8 0 367.95 0Zm0 0"/><path style="stroke:none;fill-rule:nonzero;fill:url(#a)" d="M276.45 92.102H91.573c0 46.046 37.352 83.398 83.403 83.398h34.046v33c.079 46.05 37.426 83.398 83.477 83.398v-183.75c0-8.847-7.2-16.046-16.05-16.046Zm0 0"/><path style="stroke:none;fill-rule:nonzero;fill:url(#b)" d="M184.95 184.2H0c0 46.124 37.352 83.476 83.477 83.476h34.199v32.847c0 46.051 37.273 83.329 83.324 83.403V200.25c-.074-8.852-7.2-16.05-16.05-16.05Zm0 0"/></svg>