<svg xmlns="http://www.w3.org/2000/svg" width="px" height="px" viewBox="0 0 1875 1712"><path style="stroke:none;fill-rule:nonzero;fill:#1266a9;fill-opacity:1" d="M241.426 1103.586c1.601 3.621 3.41 6.965 5.36 10.309.905 1.949 2.16 3.968 3.273 5.78 1.808 3.622 3.757 7.102 5.64 10.587l10.93 18.383c2.02 3.414 3.969 6.757 6.266 10.101 3.828 6.547 8.355 12.953 12.324 19.5 1.808 2.715 3.48 5.43 5.5 8.149 7.656 11.906 14.62 21.796 22.07 31.41 5.293 7.172 10.582 14.207 16.293 21.238 1.879 2.648 3.969 5.293 5.918 7.941l15.387 18.664c1.879 2.16 3.758 4.668 5.777 6.895 6.824 8.219 14.066 16.156 21.305 24.238 0 .137.21.278.347.485 8.985 11.285 18.66 21.312 29.243 30.226l.28.281c5.571 5.707 11.138 11.352 17.06 16.922l7.03 6.754c7.727 7.246 15.458 14.418 23.602 21.383.14 0 .207.14.348.207l3.969 3.484c7.101 6.2 14.273 12.329 21.582 18.04l8.703 7.312c5.918 4.734 12.047 9.191 18.105 13.86l9.469 7.242c6.473 4.875 13.367 9.609 19.98 14.347 2.438 1.738 4.875 3.48 7.38 5.082l2.019 1.602 19.566 12.816 8.356 5.57c10.234 6.547 20.398 12.676 30.562 18.805a112.187 112.187 0 0 1 8.567 4.735c7.515 4.32 15.316 8.707 22.906 12.675 4.176 2.368 8.492 4.387 12.809 6.547 5.222 2.926 10.652 5.782 16.222 8.707 1.531.485 2.785.973 4.04 1.668l.277-.277c2.297 1.047 4.457 2.16 6.683 3.273 8.356 4.18 17.059 8.149 26.11 12.051 1.671.695 3.48 1.39 5.293 2.367 10.023 4.387 20.05 8.567 30.425 12.606 2.368.695 4.871 1.879 7.309 2.785 9.398 3.55 19.078 7.172 28.687 10.586l3.48 1.254c10.653 3.62 21.165 7.101 32.028 10.375 2.504.699 5.082 1.601 7.727 2.3 11.07 3.34 21.793 7.313 33.004 9.403 715.246 129.746 923.074-428.035 923.074-428.035-174.617 226.343-484.512 286.027-777.98 219.586-10.86-2.504-21.723-5.989-32.723-9.192a818.887 818.887 0 0 1-46.16-14.554l6.613 2.02-4.316-1.673c-9.47-3.203-18.59-6.754-27.848-10.308a105.758 105.758 0 0 0-6.895-2.645l-.765-.21c-10.235-4.11-20.192-8.286-30.078-12.677-2.157-.695-3.97-1.671-6.125-2.504a949.427 949.427 0 0 1-34.813-16.019l9.61 4.246a101.631 101.631 0 0 1-7.383-3.621c-6.543-3.063-13.09-6.547-19.493-9.82a264.76 264.76 0 0 1-14.414-7.38l1.395.696c-7.871-4.18-15.738-8.707-23.676-12.953-2.367-1.672-5.082-3.066-7.797-4.598a977.547 977.547 0 0 1-34.949-21.312l4.387 2.648c-2.95-1.82-5.828-3.75-8.637-5.781l.418.277a420.29 420.29 0 0 1-22-14.484c-2.367-1.531-4.527-3.203-6.96-4.875a586.642 586.642 0 0 1-22.142-15.879l1.668 1.184c-2.921-2.368-6.054-4.598-9.187-6.895-6.129-4.805-12.324-9.402-18.453-14.418l-8.215-6.547a712.583 712.583 0 0 1-25.762-21.52l-.066-.07-24.16-21.937-6.965-6.547c-5.707-5.781-11.555-11.281-17.406-16.992l-6.75-6.965a624.414 624.414 0 0 1-21.098-21.938l-.418-.488-1.184-.972a1261.854 1261.854 0 0 1-21.793-24.586c-1.878-2.16-3.62-4.457-5.57-6.754l-15.805-19.153a959.152 959.152 0 0 1-20.886-27.234l-2.785-3.898C293.363 786.285 234.46 481.035 364.73 230.594L249.71 376.078c-147.952 211.652-129.64 486.887-16.503 711.629 2.578 5.504 5.434 10.656 8.219 15.879Zm0 0"/><path style="stroke:none;fill-rule:nonzero;fill:#000;fill-opacity:1" d="m739.723 798.684-.766-1.118-.625-.832Zm0 0"/><path style="stroke:none;fill-rule:nonzero;fill:#1266a9;fill-opacity:1" d="m817.563 890.055 6.265 6.27c7.938 7.66 16.086 15.112 24.371 22.566l1.043.902c8.356 7.383 17.754 15.113 27.434 22.637l1.46 1.113c2.368 1.602 4.387 3.48 6.684 5.086 9.746 7.52 19.567 14.691 29.801 21.867l1.043.625c4.316 3.137 8.91 5.992 13.785 9.055 1.95 1.254 4.18 2.926 6.266 4.18 7.383 4.734 14.62 9.12 22.07 13.648 1.184.488 2.23 1.117 3.344 1.601 6.266 3.832 13.09 7.524 19.633 10.868 2.297 1.39 4.527 2.437 6.894 3.757 4.664 2.301 9.258 4.739 13.715 7.106l2.227.976c9.402 4.594 19.007 8.915 28.41 13.16 2.367.907 4.383 1.673 6.402 2.65a547.65 547.65 0 0 0 23.324 9.472c3.485 1.183 6.754 2.574 10.028 3.62 7.101 2.645 14.55 5.083 21.582 7.52l9.75 3.133c10.164 3.137 20.468 7.246 31.261 8.918 552.329 90.953 680.157-332.273 680.157-332.273-115.09 164.847-337.817 243.406-575.164 182.047a571.272 571.272 0 0 1-35.23-10.098l3.968 1.117c-3.344-.906-6.266-1.953-9.469-2.926-7.242-2.507-14.691-4.945-21.722-7.523l-10.028-3.762c-7.797-3.133-15.734-6.058-23.324-9.398-2.367-1.047-4.523-1.742-6.336-2.79-9.746-4.386-19.562-8.702-29.102-13.3l-14.343-7.453-8.285-4.176c-6.407-3.344-12.325-6.828-18.45-10.379a38.748 38.748 0 0 1-4.527-2.508l.21.07c-7.378-4.597-15.038-9.054-22.14-13.718-2.367-1.324-4.527-2.926-6.754-4.32l-14.48-9.403c-10.027-6.96-19.844-14.414-29.8-21.656-2.227-2.02-4.388-3.691-6.544-5.504C878.625 711.141 796.328 599.5 757.27 473.094c-41.149-131.418-32.098-278.785 38.988-398.367l-87.38 123.132c-107.288 153.29-101.23 358.184-17.683 520.313 15.25 29.95 30.703 55.23 47.762 79.328 15.875 22.703 33.422 49.309 54.586 67.555 7.52 8.566 15.598 16.715 24.02 25Zm0 0"/><path style="stroke:none;fill-rule:nonzero;fill:#000;fill-opacity:1" d="m313.137 1218.223-.278-.418-.488-.63Zm289.496-51.817.699.489.137.207Zm0 0"/><path style="stroke:none;fill-rule:nonzero;fill:#1266a9;fill-opacity:1" d="M1095.016 64.559c-63.29 92.421-69.344 207.195-25.762 309.082 46.3 108.23 140.922 193.195 251.203 233.449 4.527 1.742 8.914 3.203 13.578 4.875l6.13 1.883c6.401 2.02 12.878 4.386 19.491 5.847 305.024 58.57 387.598-155.863 409.809-187.414-72.617 103.774-194.39 128.703-343.805 92.559a330.387 330.387 0 0 1-38.293-11.84l2.297.766a431.808 431.808 0 0 1-45.672-18.801l2.645 1.183c-28.547-13.93-53.055-28.972-75.82-46.246C1137.276 348.918 1054.702 156.63 1141.87 0Zm0 0"/></svg>