<svg xmlns="http://www.w3.org/2000/svg" width="px" height="px" viewBox="0 0 384 384"><path style="stroke:none;fill-rule:nonzero;fill:#ff2d20;fill-opacity:1" d="M378.3 86.852c.15.523.223 1.046.223 1.574v82.426c0 2.171-1.125 4.125-3 5.25l-69.148 39.824v78.972c0 2.176-1.125 4.125-3 5.25l-144.45 83.028c-.3.222-.675.3-1.05.449-.148.074-.3.148-.375.148-.977.301-2.102.301-3.074 0-.153-.074-.301-.148-.45-.222-.3-.153-.675-.227-.976-.375L8.55 300.074c-1.874-1.05-3-3.074-3-5.25V47.551c0-.528.075-1.051.223-1.574.079-.153.153-.301.227-.528.148-.3.227-.676.375-.898.074-.227.3-.375.45-.528.152-.222.3-.523.527-.671.148-.153.375-.301.597-.454.227-.148.45-.375.676-.523L80.852.825a6.104 6.104 0 0 1 6 0l72.222 41.55c.227.148.45.375.676.523.227.153.45.301.602.454.222.222.375.449.523.671.148.153.3.375.375.528.148.3.3.597.375.898.074.153.148.301.227.528.148.523.222 1.046.222 1.574v154.426l60.153-34.653V88.426c0-.528.074-1.051.222-1.574.074-.153.153-.375.227-.528.148-.3.222-.676.375-.898.074-.227.3-.375.375-.528.148-.222.3-.523.523-.671.153-.153.375-.301.602-.454.222-.148.449-.375.676-.523l72.222-41.55a6.104 6.104 0 0 1 6 0l72.227 41.55c.222.148.449.375.676.523.222.153.375.301.597.454.227.222.375.449.528.671.148.153.296.375.375.528.148.3.296.597.375.898-.079.227 0 .375.074.528Zm-11.85 80.546V98.852l-25.274 14.546L306.3 133.5v68.55ZM294.3 291.375v-68.55l-34.35 19.573-98.024 55.954v69.222ZM17.55 57.977v233.398l132.376 76.2v-69.223l-69.153-39.153c-.222-.148-.449-.3-.671-.523-.227-.153-.375-.301-.602-.45-.227-.226-.3-.453-.523-.601-.153-.227-.301-.375-.454-.602-.148-.222-.222-.523-.296-.75-.079-.222-.227-.449-.301-.671-.074-.301-.074-.602-.153-.903 0-.222-.074-.449-.074-.676V92.625L42.824 72.523Zm66.15-45L23.55 47.55 83.7 82.199l60.152-34.648Zm31.277 216.074 34.875-20.102V57.977l-25.278 14.546L89.7 92.625v150.977ZM300.3 53.85 240.148 88.5l60.153 34.648L360.449 88.5Zm-6 79.649-34.875-20.102-25.278-14.546v68.546l34.875 20.102 25.278 14.55ZM155.926 287.926l88.199-50.403 44.102-25.199-60.079-34.574-69.222 39.824-63.074 36.301Zm0 0"/></svg>