<svg xmlns="http://www.w3.org/2000/svg" width="px" height="px" viewBox="0 0 96 96"><path style="stroke:none;fill-rule:evenodd;fill:#fb70a9;fill-opacity:1" d="M81.426 62.66c-1.453 2.195-2.555 4.895-5.508 4.895-4.965 0-5.234-7.653-10.207-7.653-4.969 0-4.695 7.653-9.664 7.653-4.969 0-5.234-7.653-10.207-7.653-4.969 0-4.7 7.653-9.664 7.653-4.969 0-5.235-7.653-10.203-7.653-4.973 0-4.703 7.653-9.668 7.653-1.563 0-2.66-.754-3.582-1.793C9.168 59.582 7.12 52.34 7.12 44.598c0-22.668 17.527-41.043 39.145-41.043 21.617 0 39.144 18.375 39.144 41.043 0 6.48-1.433 12.613-3.984 18.062Zm0 0"/><path style="stroke:none;fill-rule:evenodd;fill:#4e56a6;fill-opacity:1" d="M30.633 58.61v17a5.526 5.526 0 0 1-5.528 5.523 5.524 5.524 0 0 1-5.527-5.524V55.086c1.031-1.89 2.207-3.527 4.332-3.527 3.457 0 4.668 4.34 6.723 7.05Zm20.883.886V86.38c0 3.39-2.75 6.137-6.141 6.137a6.142 6.142 0 0 1-6.145-6.137V55.953c1.16-2.23 2.352-4.398 4.793-4.398 3.872 0 4.922 5.433 7.493 7.941ZM71.172 59v19.52a5.524 5.524 0 0 1-5.527 5.523 5.526 5.526 0 0 1-5.528-5.523V54.53c.961-1.648 2.106-2.976 4.024-2.976 3.629 0 4.78 4.785 7.03 7.445Zm0 0"/><path style="stroke:none;fill-rule:evenodd;fill:#000;fill-opacity:.298039" d="M30.633 63.82c-.98-1.203-2.14-2.093-3.82-2.093-3.989 0-4.72 5.023-7.235 7.285V47.359a5.521 5.521 0 0 1 5.527-5.523 5.526 5.526 0 0 1 5.528 5.523Zm20.883.387c-1.047-1.39-2.27-2.477-4.121-2.477-4.438 0-4.844 6.211-8.165 7.934v-9.578a6.142 6.142 0 0 1 6.145-6.137 6.136 6.136 0 0 1 6.14 6.137Zm19.656-1.074c-.852-.84-1.86-1.403-3.195-1.403-4.301 0-4.817 5.833-7.86 7.754V50.051a5.527 5.527 0 1 1 11.055 0Zm0 0"/><path style="stroke:none;fill-rule:evenodd;fill:#fb70a9;fill-opacity:1" d="M81.426 62.66c-1.453 2.195-2.555 4.895-5.508 4.895-4.965 0-5.234-7.653-10.207-7.653-4.969 0-4.695 7.653-9.664 7.653-4.969 0-5.234-7.653-10.207-7.653-4.969 0-4.7 7.653-9.664 7.653-4.969 0-5.235-7.653-10.203-7.653-4.973 0-4.703 7.653-9.668 7.653-1.563 0-2.66-.754-3.582-1.793C9.168 59.582 7.12 52.34 7.12 44.598c0-22.668 17.527-41.043 39.145-41.043 21.617 0 39.144 18.375 39.144 41.043 0 6.48-1.433 12.613-3.984 18.062Zm0 0"/><path style="stroke:none;fill-rule:evenodd;fill:#e24ca6;fill-opacity:1" d="M72.953 66.738c10.258-15.25 10.524-32.16.797-50.738a40.945 40.945 0 0 1 11.66 28.688 40.926 40.926 0 0 1-4.133 17.992c-1.504 2.183-2.648 4.875-5.707 4.875a4.478 4.478 0 0 1-2.617-.817Zm0 0"/><path style="stroke:none;fill-rule:evenodd;fill:#fff;fill-opacity:1" d="M44.168 54.836c13.613 0 19.344-7.887 19.344-19.094s-8.66-21.52-19.344-21.52c-10.684 0-19.344 10.313-19.344 21.52 0 11.207 5.73 19.094 19.344 19.094Zm0 0"/><path style="stroke:none;fill-rule:evenodd;fill:#030776;fill-opacity:1" d="M46.219 28.379c0 4.414-3.25 8-7.254 8-4.008 0-7.254-3.582-7.254-8s3.246-8.004 7.254-8.004c4.004 0 7.254 3.582 7.254 8.004Zm0 0"/><path style="stroke:none;fill-rule:evenodd;fill:#fff;fill-opacity:1" d="M41.383 26.531c0 2.04-1.625 3.692-3.63 3.692-2.003 0-3.624-1.653-3.624-3.692s1.621-3.691 3.625-3.691 3.629 1.652 3.629 3.691Zm0 0"/></svg>