<svg xmlns="http://www.w3.org/2000/svg" width="px" height="px" viewBox="0 0 384 384"><path style="stroke:none;fill-rule:nonzero;fill:#6a7e91;fill-opacity:1" d="M92.371 299.2H77.535c-.523-25.044-2.004-48.505-4.312-70.59h-.106L50.602 299.2H39.344l-22.41-70.598h-.106c-1.68 21.148-2.734 44.714-3.156 70.59H0c.84-31.458 3.05-61.02 6.523-88.481h18.415l21.359 65.02h.105l21.465-65.02h17.574c3.875 32.2 6.196 61.766 6.93 88.488M156.547 233.863c-6 32.723-13.996 56.5-23.879 71.336-7.68 11.465-16.094 17.145-25.36 17.145-2.421 0-5.464-.735-9.042-2.215v-7.89c1.785.21 3.785.421 6.21.421 4.313 0 7.786-1.156 10.313-3.578 3.156-2.844 4.73-6.105 4.73-9.684 0-2.421-1.257-7.468-3.683-15.043L99.53 233.86h14.52l11.68 37.77c2.632 8.625 3.683 14.52 3.261 17.992 6.422-17.043 10.836-35.664 13.36-55.762Zm0 0"/><path style="stroke:none;fill-rule:nonzero;fill:#fa8a3b;fill-opacity:1" d="M353.805 299.2h-42.082v-88.587h14.203v77.64h27.879Zm0 0"/><path style="stroke:none;fill-rule:evenodd;fill:#fa8a3b;fill-opacity:1" d="M300.676 301.297 284.37 293.3c1.469-1.153 2.84-2.422 4.102-3.996 6.945-8.102 10.418-20.094 10.418-36.082 0-29.25-11.47-43.973-34.508-43.973-11.258 0-20.094 3.684-26.406 11.152-6.946 8.102-10.313 20.094-10.313 35.977 0 15.57 3.05 26.933 9.149 34.195 5.574 6.524 13.996 9.785 25.359 9.785 4.207 0 8.098-.523 11.57-1.574l21.149 12.309Zm-52.703-19.883c-3.578-5.789-5.364-15.043-5.364-27.773 0-22.305 6.735-33.457 20.305-33.457 7.047 0 12.305 2.632 15.57 7.996 3.575 5.789 5.36 14.941 5.36 27.562 0 22.516-6.735 33.668-20.301 33.668-7.05.106-12.211-2.625-15.57-7.996"/><path style="stroke:none;fill-rule:nonzero;fill:#fa8a3b;fill-opacity:1" d="M221.46 274.68c0 7.468-2.737 13.68-8.206 18.52-5.465 4.835-12.938 7.257-22.2 7.257-8.624 0-17.038-2.738-25.148-8.309l3.79-7.574c6.945 3.473 13.355 5.254 19.042 5.254 5.364 0 9.465-1.152 12.516-3.574 3.055-2.32 4.84-5.68 4.84-9.79 0-5.257-3.684-9.788-10.418-13.468-6.211-3.367-18.625-10.523-18.625-10.523-6.735-4.942-10.102-10.207-10.102-18.832 0-7.157 2.528-12.938 7.574-17.364 5.051-4.425 11.575-6.629 19.465-6.629 8.203 0 15.676 2.211 22.41 6.524l-3.472 7.574c-5.79-2.422-11.469-3.68-17.04-3.68-4.523 0-7.995 1.047-10.523 3.262-2.422 2.211-4 4.942-4 8.414 0 5.258 3.79 9.79 10.63 13.68 6.316 3.367 19.042 10.629 19.042 10.629 7.059 4.746 10.426 10.004 10.426 18.629"/><path style="stroke:none;fill-rule:evenodd;fill:#6a7e91;fill-opacity:1" d="M371.586 181.05c-8.52-.21-15.149.63-20.723 2.946-1.574.633-4.207.633-4.414 2.633.84.84.942 2.215 1.68 3.473 1.258 2.109 3.473 5.046 5.57 6.527a163.741 163.741 0 0 0 6.84 4.941c4.207 2.633 8.836 4.102 12.938 6.63 2.32 1.472 4.734 3.366 7.05 5.046 1.157.84 1.891 2.215 3.368 2.738v-.312c-.735-.945-.946-2.32-1.68-3.473-1.05-1.05-2.106-2.004-3.262-3.054-3.156-4.208-6.945-7.786-11.152-10.836-3.473-2.32-10.942-5.575-12.309-9.465l-.21-.211c2.32-.211 5.152-1.051 7.366-1.68 3.68-.945 6.946-.734 10.73-1.68a94.407 94.407 0 0 0 5.153-1.472v-.942c-1.89-1.89-3.367-4.523-5.36-6.316-5.468-4.734-11.468-9.254-17.679-13.148-3.367-2.106-7.574-3.473-11.152-5.364-1.262-.629-3.367-.945-4.207-2-1.89-2.32-3.055-5.469-4.418-8.207a271.314 271.314 0 0 1-8.73-18.62c-1.891-4.208-3.051-8.313-5.47-12.204-11.046-18.203-23.038-29.25-41.343-39.977-4-2.21-8.625-3.261-13.684-4.414-2.629-.105-5.36-.316-7.992-.421-1.68-.735-3.473-2.739-4.945-3.79-6.102-3.89-21.778-12.199-26.301-1.152-2.844 6.945 4.313 13.785 6.734 17.363 1.786 2.422 4.207 5.254 5.47 7.993.733 1.785.944 3.789 1.679 5.68 1.68 4.73 3.262 9.995 5.57 14.308 1.156 2.21 2.426 4.629 4 6.629.84 1.156 2.317 1.68 2.633 3.683-1.473 2.11-1.574 5.364-2.422 7.996-3.894 12.098-2.32 27.036 3.156 35.977 1.68 2.633 5.79 8.52 11.258 6.316 4.836-1.89 3.785-7.996 5.152-13.359.317-1.258.106-2.105.735-2.945v.207c1.469 2.949 2.95 5.894 4.418 8.836 3.367 5.257 9.043 10.734 13.89 14.308 2.528 1.89 4.625 5.258 7.786 6.422v-.316h-.211c-.63-.946-1.575-1.364-2.422-2.106-1.89-1.89-4.102-4.312-5.574-6.422-4.524-6-8.414-12.62-11.993-19.46-1.68-3.368-3.261-6.946-4.625-10.313-.632-1.262-.632-3.156-1.683-3.895-1.574 2.32-3.996 4.418-5.153 7.262-2 4.63-2.21 10.313-3.05 16.2-.422.105-.211 0-.422.21-3.367-.84-4.625-4.418-5.895-7.367-3.156-7.574-3.785-19.777-.945-28.61.738-2.214 4-9.257 2.633-11.468-.63-2.004-2.735-3.156-3.996-4.836-1.364-2.004-2.95-4.629-3.895-6.84-2.527-6-3.89-12.625-6.629-18.625-1.258-2.738-3.578-5.676-5.363-8.203-2-2.844-4.313-4.945-5.895-8.312-.523-1.153-1.257-3.157-.418-4.418.211-.84.63-1.153 1.47-1.364 1.366-1.156 5.362.317 6.734.946 4 1.574 7.261 3.156 10.628 5.363 1.47 1.05 3.157 3.05 5.047 3.68h2.211c3.473.738 7.262.21 10.524 1.156 5.68 1.785 10.84 4.523 15.36 7.367 13.995 8.832 25.57 21.465 33.355 36.613 1.257 2.422 1.785 4.735 3.05 7.262 2.211 5.258 5.047 10.625 7.262 15.777 2.211 5.047 4.414 10.207 7.574 14.313 1.575 2.21 7.996 3.367 10.942 4.625 2.11.945 5.468 1.785 7.367 2.95 3.68 2.21 7.258 4.835 10.73 7.257 1.875 1.125 7.246 3.75 7.559 5.965"/><path style="stroke:none;fill-rule:evenodd;fill:#6a7e91;fill-opacity:1" d="M262.484 88.05c-1.785 0-3.05.212-4.418.524v.211h.211c.84 1.68 2.317 2.844 3.473 4.418.84 1.68 1.574 3.367 2.422 5.152l.21-.21c1.47-1.051 2.212-2.739 2.212-5.364-.63-.734-.735-1.469-1.258-2.21-.637-1.157-2.004-1.68-2.852-2.52"/><path style="stroke:none;fill-rule:nonzero;fill:#fa8a3b;fill-opacity:1" d="M381.79 299.2H384v-10.84h-3.367l-2.738 7.367-2.946-7.368h-3.16v10.84h2.11v-8.312h.105l3.05 8.207h1.575l3.055-8.207v8.312Zm-17.884 0h2.32v-9.048h3.051v-1.89h-8.625v1.89h3.157v9.047Zm0 0"/></svg>