<svg xmlns="http://www.w3.org/2000/svg" width="px" height="px" viewBox="0 0 675 675"><path style="stroke:none;fill-rule:nonzero;fill:#00dc82;fill-opacity:1" d="M378.68 562.5h250.925c7.973 0 15.801-2.078 22.704-6.027A45.203 45.203 0 0 0 668.926 540 44.664 44.664 0 0 0 675 517.496 44.695 44.695 0 0 0 668.906 495L500.391 205.715a45.182 45.182 0 0 0-16.614-16.469 45.714 45.714 0 0 0-22.699-6.027 45.71 45.71 0 0 0-22.695 6.027 45.211 45.211 0 0 0-16.613 16.469l-43.09 74.02-84.243-144.739a45.232 45.232 0 0 0-16.62-16.469 45.74 45.74 0 0 0-22.704-6.027 45.714 45.714 0 0 0-22.699 6.027 45.214 45.214 0 0 0-16.625 16.47L6.094 495A44.695 44.695 0 0 0 0 517.496 44.704 44.704 0 0 0 6.074 540a45.203 45.203 0 0 0 16.617 16.473 45.718 45.718 0 0 0 22.704 6.027h157.507c62.41 0 108.434-27.168 140.102-80.176l76.883-131.965 41.18-70.625L584.66 491.875H419.887Zm-178.344-70.695-109.922-.028 164.774-282.836 82.214 141.418-55.047 94.524c-21.03 34.39-44.921 46.922-82.02 46.922Zm0 0"/></svg>