<svg xmlns="http://www.w3.org/2000/svg" width="px" height="px" viewBox="0 0 384 384"><defs><linearGradient id="a" gradientUnits="userSpaceOnUse" x1="-.213" y1="512.779" x2="1.787" y2="512.779" gradientTransform="matrix(80.61 -175.65758 129.77152 109.113 -66550.324 -55586.672)"><stop offset="0" style="stop-color:#765af8;stop-opacity:1"/><stop offset=".02" style="stop-color:#765af8;stop-opacity:1"/><stop offset=".38" style="stop-color:#b345f1;stop-opacity:1"/><stop offset=".76" style="stop-color:#fa3293;stop-opacity:1"/><stop offset=".94" style="stop-color:#ff318c;stop-opacity:1"/><stop offset="1" style="stop-color:#ff318c;stop-opacity:1"/></linearGradient><linearGradient id="b" gradientUnits="userSpaceOnUse" x1="-1.04" y1="513.557" x2=".96" y2="513.557" gradientTransform="matrix(-45.48 -107.955 120.62318 -40.70355 -61715.22 21045.858)"><stop offset="0" style="stop-color:#765af8;stop-opacity:1"/><stop offset=".18" style="stop-color:#765af8;stop-opacity:1"/><stop offset=".24" style="stop-color:#8655f6;stop-opacity:1"/><stop offset=".34" style="stop-color:#9f4cf3;stop-opacity:1"/><stop offset=".44" style="stop-color:#ae47f2;stop-opacity:1"/><stop offset=".52" style="stop-color:#b345f1;stop-opacity:1"/><stop offset="1" style="stop-color:#b345f1;stop-opacity:1"/></linearGradient><linearGradient id="c" gradientUnits="userSpaceOnUse" x1="-2.076" y1="512.721" x2="-.076" y2="512.721" gradientTransform="matrix(-105.795 -81.81 68.628 -126.11602 -35059.682 64807.09)"><stop offset="0" style="stop-color:#765af8;stop-opacity:1"/><stop offset=".02" style="stop-color:#765af8;stop-opacity:1"/><stop offset=".38" style="stop-color:#b345f1;stop-opacity:1"/><stop offset="1" style="stop-color:#b345f1;stop-opacity:1"/></linearGradient></defs><path style="stroke:none;fill-rule:nonzero;fill:url(#a)" d="M0 73.8 65.398 0 199.2 28.8l18 54.598L204 178.2l-53.176-27.222 2.778 75.824v66l-117 1.199Zm0 0"/><path style="stroke:none;fill-rule:nonzero;fill:url(#b)" d="m121.2 225 7.198-90.602L237 22.801l97.2 18L384 165l-52.2 51.602-84.6-13.801L193.8 258Zm0 0"/><path style="stroke:none;fill-rule:nonzero;fill:url(#c)" d="M237 22.8 81 161.399 111 339l129.602 45L384 298.2Zm0 0"/><path style="stroke:none;fill-rule:nonzero;fill:#000;fill-opacity:1" d="M72 72h240v240H72Zm0 0"/><path style="stroke:none;fill-rule:nonzero;fill:#fff;fill-opacity:1" d="M94.8 267h90v15h-90Zm-1.198-163.8h40.796c24 0 38.403 13.8 38.403 34.198 0 22.801-18 34.801-40.2 34.801h-16.8v30H93.6Zm39.597 51c10.5 0 17.403-7.2 17.403-15.598 0-9.602-6.602-15-18-15H115.8v30.597Zm45 34.198 13.2-15.597c9 7.199 18.601 12 30 12 9 0 14.402-3.602 14.402-9.602 0-5.398-3.602-8.398-20.403-12.597-20.398-5.403-33-10.801-33-30.602v-.602c0-18 14.403-30 34.801-30A60.241 60.241 0 0 1 254.4 114L243 130.8c-9-6-17.398-9.6-25.8-9.6-8.4 0-12.598 3.6-12.598 9 0 6.6 4.199 9 21.597 13.198C246.602 148.801 258 156 258 173.398c0 19.801-15 31.204-36.602 31.204a63.327 63.327 0 0 1-43.199-16.204Zm0 0"/></svg>