<svg xmlns="http://www.w3.org/2000/svg" width="px" height="px" viewBox="0 0 384 384"><path style="stroke:none;fill-rule:nonzero;fill:#f15a24;fill-opacity:1" d="m72.602 373.648-67.125 2.329 34.421-34.954ZM377.102 200.102c-12.454 97.273-101.403 165.972-198.676 153.449-97.2-12.45-165.903-101.403-153.45-198.602C37.427 57.676 126.376-11.023 223.649 1.5c97.204 12.45 165.903 101.398 153.454 198.602"/><path style="stroke:none;fill-rule:nonzero;fill:#999;fill-opacity:1" d="M246.3 127.05c11.7 12.376.15 41.7.15 41.7s-11.4 41.477-76.5 95.176L157.726 252l82.722-84.523 1.574-2.176c2.25-3.528 4.051-38.477 4.278-38.25"/><path style="stroke:none;fill-rule:nonzero;fill:#fff;fill-opacity:1" d="m246.3 127.05-1.05.973c1.8 1.875 3 4.278 3.75 6.903s1.05 5.625 1.05 8.625c0 6-1.277 12.148-2.476 16.875-.597 2.324-1.273 4.347-1.722 5.699-.227.676-.454 1.2-.602 1.574-.074.153-.148.301-.148.45l-.079.152-.074.148c-.3 1.051-12.148 41.7-76.05 94.5L169.8 264l.972-.977L159.75 252l81.75-83.55.148-.15 1.579-2.175.074-.074c.222-.45.375-.824.523-1.352.301-.972.528-2.176.75-3.75.824-5.25 1.574-13.722 2.102-20.847.3-3.602.523-6.829.676-9.153.074-1.199.148-2.097.222-2.773 0-.301.074-.602.074-.75v-.074l-1.199-.227 1.125.45.074-.15-1.199-.226 1.125.45-1.273-.598 1.125.824c.148-.148.148-.227.148-.3l-1.273-.524 1.125.824-1.125-.824.824 1.125c.148-.153.227-.227.3-.301l-1.124-.824.824 1.125-.824-1.125v1.426c.375 0 .676-.153.824-.227l-.824-1.2v1.427-1.426l-.676 1.199c.227.148.45.148.676.148v-1.347l-.676 1.199.676-1.2-1.125.825c.074.148.222.227.449.375l.676-1.2-1.125.825.074.074 1.05-.898 1.126-.824c-.074-.153-.227-.227-.45-.375-.226-.153-.453-.153-.675-.153-.301 0-.528.074-.676.227-.3.222-.45.375-.523.523-.153.227-.153.301-.153.375l-.074.227c0 .222-.074.449-.074.824-.227 2.625-.75 11.176-1.5 19.5-.375 4.125-.75 8.25-1.2 11.477-.226 1.574-.453 3-.675 4.046-.153.528-.227.977-.301 1.278-.074.3-.227.523-.227.597l1.204.75-1.125-.824-1.579 2.102-82.648 84.222a1.41 1.41 0 0 0 0 1.954l12.148 11.921a1.386 1.386 0 0 0 1.875.079c65.329-53.926 76.954-95.625 76.954-95.926l-1.352-.375 1.273.523s1.278-3.3 2.551-8.176c1.278-4.875 2.551-11.25 2.551-17.625 0-3.222-.3-6.449-1.2-9.375-.823-3-2.25-5.773-4.425-8.023l-.824 1.05 1.125-.823Zm0 0"/><path style="stroke:none;fill-rule:nonzero;fill:#666;fill-opacity:1" d="m139.875 234.45 106.273-107.7c5.403 6.375 6.528 13.273 4.954 23.102-1.051 6.824-12.829 20.398-12.829 20.398L157.727 252"/><path style="stroke:none;fill-rule:nonzero;fill:#fff;fill-opacity:1" d="m140.55 235.05 106.2-107.698-.602-.602-.671.602c3.824 4.574 5.398 9.222 5.398 15.222 0 2.176-.227 4.574-.602 7.2-.222 1.5-1.125 3.601-2.324 5.777-1.875 3.3-4.426 6.824-6.523 9.597a183.696 183.696 0 0 1-2.7 3.375c-.3.375-.601.75-.828.977-.148.227-.296.3-.296.3l.671.598-.597-.597-80.551 81.75c-.375.375-.3.898 0 1.273.3.375.898.301 1.273 0l80.551-81.75.074-.074s2.926-3.45 6.079-7.727c1.574-2.171 3.148-4.5 4.421-6.75 1.278-2.25 2.25-4.421 2.551-6.375.45-2.699.676-5.171.676-7.421 0-6.301-1.727-11.551-5.852-16.352-.148-.227-.375-.3-.597-.3-.227 0-.45.073-.676.226L139.273 233.85c-.375.376-.296.899 0 1.274.375.3.903.3 1.278-.074Zm0 0"/><path style="stroke:none;fill-rule:nonzero;fill:#ff931e;fill-opacity:1" d="M246.3 127.125 139.876 234.449l.227-.222h-.079l-26.398-26.028c55.05-68.472 90.602-81.222 90.602-81.222s23.171-9.079 39.671-2.028c1.352.75 1.954 1.125 2.403 2.176"/><path style="stroke:none;fill-rule:nonzero;fill:#fff;fill-opacity:1" d="m246.3 127.125-.976-.977-106.426 107.329c-.523.523-.523 1.421 0 1.949a1.41 1.41 0 0 0 1.954 0l.222-.227c.45-.449.528-1.199.227-1.722-.375-.528-1.051-.829-1.653-.528h-.074l.528 1.278.972-.977-26.398-26.023-.977.972 1.125.903c27.45-34.125 50.028-54.375 65.7-66.079 7.8-5.847 13.953-9.523 18.078-11.773 2.097-1.125 3.671-1.875 4.722-2.324.528-.227.903-.375 1.2-.528l.3-.074h.074l.153-.074c1.273-.523 12.523-4.574 24.3-4.574 4.876 0 9.825.676 14.25 2.55l.524-1.277-.676 1.2c.602.3.977.527 1.2.75.226.152.3.3.453.75.148.453.597.75 1.046.828.454.074.903-.079 1.278-.375.3-.301.375-.602.375-.977s-.153-.75-.375-.977c-.301-.296-.602-.375-.977-.375s-.75.153-.972.454l.824.898-.977-.977.977.977 1.273-.523c-.3-.676-.676-1.278-1.199-1.727-.523-.45-1.05-.75-1.727-1.125l-.148-.074c-4.875-2.028-10.2-2.778-15.3-2.778-13.2 0-25.348 4.801-25.427 4.801l.528 1.278-.45-1.352c-.3.074-36.078 13.05-91.277 81.676-.449.523-.375 1.347.074 1.875l26.403 26.023c.375.375.972.528 1.5.301h.074l-.523-1.273-.977-.977-.227.227.977.972.977.977 106.421-107.324a1.403 1.403 0 0 0 0-1.954c-.523-.523-1.421-.523-1.949 0Zm0 0"/><path style="stroke:none;fill-rule:nonzero;fill:#999;fill-opacity:1" d="M169.95 264c-25.348 20.926-57.9 53.773-102 76.648l9.823 42-41.625-41.023L139.95 234.523"/><path style="stroke:none;fill-rule:nonzero;fill:#fff;fill-opacity:1" d="M169.05 262.875c-25.5 21-57.823 53.7-101.777 76.5-.597.3-.898.977-.75 1.574l8.704 37.278-37.204-36.602L140.852 235.5a1.406 1.406 0 0 0 0-1.95 1.403 1.403 0 0 0-1.954 0L35.102 340.649a1.403 1.403 0 0 0 0 1.954l41.625 41.023c.449.45 1.125.523 1.648.227.523-.301.824-.903.676-1.579l-9.824-42-1.352.301.676 1.278c44.398-23.028 76.949-55.954 102.3-76.801.598-.528.672-1.352.223-1.95-.597-.601-1.426-.675-2.023-.226Zm0 0"/><path style="stroke:none;fill-rule:nonzero;fill:#f15a24;fill-opacity:1" d="m114.375 208.648 25.8 25.653-59.55 12.898 33.227-39.074Zm0 0"/><path style="stroke:none;fill-rule:nonzero;fill:#fff;fill-opacity:1" d="m114.375 208.648-.977.977 24 23.852-53.023 11.472 30.523-35.926-1.046-.898-.903 1.125.602.45.824-1.052v-1.421c-.602 0-1.05.375-1.273.898a1.375 1.375 0 0 0 .296 1.5l.977-.977v1.426c.602 0 1.125-.375 1.352-.898.222-.528 0-1.2-.454-1.574l-.597-.454a1.484 1.484 0 0 0-1.95.153l-33.226 39a1.47 1.47 0 0 0-.148 1.648c.296.528.898.75 1.5.676l59.546-12.898c.528-.079.903-.454 1.051-.977.153-.523 0-1.05-.375-1.352l-25.8-25.648-.899.898v1.426Zm0 0"/><path style="stroke:none;fill-rule:nonzero;fill:#999;fill-opacity:1" d="M236.102 96c-2.551 22.8 13.875 43.352 36.75 45.898 22.796 2.551 43.347-13.949 45.898-36.75C321.3 82.352 304.8 61.727 282 59.25 259.2 56.7 238.648 73.125 236.102 96"/><path style="stroke:none;fill-rule:nonzero;fill:#fff;fill-opacity:1" d="m236.102 96-1.426-.148c-.153 1.574-.301 3.222-.301 4.796 0 21.602 16.273 40.204 38.25 42.676 1.574.153 3.227.301 4.8.301 21.598 0 40.2-16.273 42.677-38.25.148-1.574.296-3.227.296-4.8 0-21.598-16.273-40.274-38.25-42.677-1.574-.148-3.222-.296-4.796-.296-21.602 0-40.278 16.273-42.676 38.25l1.426.148 1.421.148c2.25-20.546 19.727-35.773 39.903-35.773 1.5 0 3 .074 4.5.227 20.55 2.25 35.773 19.722 35.773 39.898 0 1.5-.074 3-.222 4.5-2.329 20.55-19.727 35.773-39.903 35.773-1.5 0-3-.074-4.5-.222-20.55-2.324-35.773-19.727-35.773-39.903 0-1.5.074-3 .222-4.5Zm0 0"/><path style="stroke:none;fill-rule:nonzero;fill:#666;fill-opacity:1" d="M312.824 123.602c7.653-11.176 7.278-27.977 5.7-32.926-1.876-6.074-6.149-15.977-13.5-21.153l-39 35.926s30 32.176 30.75 32.324c.374 0 9.078-3.972 16.05-14.171"/><path style="stroke:none;fill-rule:nonzero;fill:#fff;fill-opacity:1" d="m312.824 123.602 1.125.824c5.324-7.875 6.903-18 6.903-25.426 0-3.75-.375-6.824-.977-8.7-.977-3.152-2.55-7.198-4.8-11.175-2.25-3.977-5.325-7.95-9.223-10.648a1.364 1.364 0 0 0-1.727.148l-39 35.926c-.3.222-.45.597-.45.972s.15.75.376.977l15.074 16.125c3.824 4.05 7.648 8.102 10.574 11.102 1.5 1.5 2.7 2.773 3.602 3.671.449.454.824.829 1.125 1.051.148.153.3.227.375.375l.222.153.153.074c.074.074.222.074.449.148h.227c.296 0 .375-.074.449-.074.3-.074.523-.148.898-.375 1.278-.602 3.676-1.95 6.528-4.273 2.921-2.329 6.222-5.625 9.296-10.051l-1.199-.824-1.125-.829c-3.375 4.954-7.125 8.403-10.125 10.579-1.5 1.125-2.773 1.875-3.676 2.398-.449.227-.824.45-1.046.523l-.227.079.148.523-.148-.523h-.074l.148.523-.148-.523.3 1.199v-1.2h-.3l.3 1.2v-1.2 1.348l.149-1.347h-.148v1.347l.148-1.347-.148 1.421.222-1.347-.148 1.273.597-1.199c-.074 0-.148-.074-.375-.148l-.148 1.273.602-1.2-.602.825.523-.75-.148-.074-.375.824.523-.75s-.222-.227-.523-.523c-1.2-1.125-3.676-3.676-6.676-6.829a1630.556 1630.556 0 0 1-15-15.972c-2.324-2.477-4.347-4.727-5.847-6.301-1.5-1.574-2.329-2.55-2.329-2.55l-1.046.976.972 1.05L306 70.5l-.977-1.05-.824 1.124c3.45 2.403 6.227 6 8.403 9.75 2.171 3.75 3.671 7.653 4.574 10.653.449 1.421.824 4.347.824 7.875 0 7.046-1.5 16.796-6.375 23.847Zm-7.875-28.204-1.273.528c.148.3 1.273 3.449 1.273 7.199 0 2.55-.523 5.324-2.176 7.8l1.204.75 1.421.075.977-16.352h-1.426l-1.273.528 1.273-.528-1.426-.074-.972 16.352c-.074.597.375 1.199.972 1.426.602.222 1.278 0 1.579-.528 2.023-3.074 2.625-6.449 2.625-9.375 0-4.648-1.5-8.176-1.5-8.324-.227-.602-.903-.977-1.5-.824-.676.074-1.125.676-1.204 1.273Zm0 0"/><path style="stroke:none;fill-rule:nonzero;fill:#666;fill-opacity:1" d="m158.7 252.074-43.052 7.653 25.954-27"/><path style="stroke:none;fill-rule:nonzero;fill:#fff;fill-opacity:1" d="m158.398 250.648-38.773 6.903 23.023-23.852a1.336 1.336 0 0 0-.074-1.949 1.342 1.342 0 0 0-1.949.074l-25.95 27a1.371 1.371 0 0 0-.226 1.653c.301.523.903.824 1.5.75L159 253.574c.75-.148 1.273-.824 1.125-1.648-.148-.824-.898-1.352-1.727-1.278Zm-43.949-40.796 54.75 51.523c.602.523 1.426.523 1.95-.074.527-.602.527-1.426-.075-1.95l-54.75-51.527c-.597-.523-1.426-.523-1.949.074a1.347 1.347 0 0 0 .074 1.954Zm0 0"/></svg>