<svg xmlns="http://www.w3.org/2000/svg" width="px" height="px" viewBox="0 0 375 375"><path style="stroke:none;fill-rule:nonzero;fill:#cd6799;fill-opacity:1" d="M286.352 202.875c-9.528.074-17.852 2.324-24.829 5.773-2.546-5.023-5.097-9.523-5.546-12.824-.528-3.824-1.125-6.222-.528-10.8.602-4.575 3.301-11.172 3.227-11.626-.074-.523-.602-2.847-6.074-2.921-5.477-.079-10.278 1.046-10.801 2.472-.528 1.426-1.574 4.727-2.324 8.176-.977 5.023-11.028 22.875-16.727 32.176-1.875-3.676-3.45-6.824-3.824-9.375-.528-3.824-1.125-6.227-.528-10.801.602-4.574 3.301-11.176 3.227-11.625-.074-.523-.602-2.852-6.074-2.926-5.477-.074-10.278 1.051-10.801 2.477-.523 1.426-1.125 4.875-2.324 8.176-1.125 3.296-14.477 33.074-18 40.796-1.801 3.977-3.375 7.125-4.426 9.227 0 0-.074.148-.227.375-.972 1.875-1.5 2.852-1.5 2.852v.074c-.75 1.347-1.574 2.625-1.949 2.625-.3 0-.824-3.602.074-8.477 2.028-10.347 6.75-26.472 6.676-27 0-.3.903-3.074-3.074-4.574-3.898-1.426-5.324.977-5.625.977-.375 0-.602.824-.602.824s4.352-18.074-8.324-18.074c-7.875 0-18.824 8.625-24.222 16.421-3.375 1.875-10.653 5.778-18.375 10.051-2.926 1.653-6 3.301-8.852 4.875-.227-.222-.375-.449-.602-.676-15.296-16.347-43.574-27.898-42.375-49.875.454-8.023 3.227-29.023 54.375-54.523 42.079-20.773 75.602-15 81.375-2.25 8.329 18.227-17.921 51.977-61.421 56.926-16.579 1.875-25.278-4.574-27.528-6.977-2.324-2.472-2.625-2.625-3.523-2.176-1.426.75-.528 3 0 4.278 1.273 3.375 6.676 9.375 15.676 12.375 8.023 2.625 27.449 4.05 51-5.028 26.324-10.199 46.949-38.546 40.875-62.324-6.079-24.074-46.051-32.023-83.926-18.597-22.5 8.023-46.875 20.625-64.426 36.972-20.852 19.5-24.148 36.45-22.8 43.574 4.874 25.204 39.6 41.625 53.476 53.778-.676.375-1.352.75-1.875 1.05-6.977 3.45-33.45 17.325-40.051 31.95-7.5 16.574 1.2 28.5 6.977 30.074 17.847 4.95 36.222-3.977 46.046-18.676 9.829-14.699 8.625-33.824 4.125-42.523-.074-.074-.074-.227-.222-.301 1.8-1.05 3.676-2.176 5.472-3.227a225.366 225.366 0 0 1 10.051-5.625c-1.722 4.653-2.926 10.204-3.523 18.227-.75 9.375 3.074 21.602 8.176 26.398 2.25 2.102 4.875 2.176 6.597 2.176 5.926 0 8.551-4.875 11.477-10.722 3.597-7.125 6.824-15.375 6.824-15.375s-4.05 22.273 6.977 22.273c3.972 0 8.023-5.176 9.824-7.875v.074s.074-.148.3-.523c.376-.676.672-1.051.672-1.051v-.074c1.579-2.778 5.176-9.153 10.579-19.727 6.898-13.574 13.574-30.597 13.574-30.597s.597 4.125 2.625 11.023c1.199 4.05 3.676 8.477 5.699 12.824-1.574 2.25-2.625 3.528-2.625 3.528l.074.074a83.652 83.652 0 0 1-4.273 5.324c-5.477 6.523-11.926 13.95-12.824 16.125-1.051 2.55-.829 4.426 1.199 5.926 1.426 1.125 4.05 1.273 6.676 1.125 4.875-.375 8.324-1.574 10.046-2.324 2.625-.977 5.778-2.403 8.625-4.579 5.329-3.972 8.625-9.597 8.329-17.023-.153-4.125-1.5-8.176-3.153-12.074.528-.676.977-1.426 1.426-2.102 8.477-12.375 15-25.875 15-25.875s.602 4.125 2.625 11.028c.977 3.523 3.074 7.273 4.875 11.023-7.95 6.45-12.824 13.95-14.625 18.824-3.148 9.074-.676 13.2 3.977 14.176 2.097.45 5.097-.523 7.273-1.5 2.773-.898 6.074-2.477 9.227-4.727 5.324-3.972 10.5-9.449 10.199-16.875-.153-3.375-1.051-6.75-2.324-9.972 6.75-2.778 15.449-4.352 26.546-3.074 23.778 2.773 28.5 17.625 27.602 23.921-.898 6.227-5.926 9.676-7.574 10.727-1.653 1.05-2.176 1.426-2.028 2.176.227 1.125.977 1.05 2.403.824 1.949-.375 12.523-5.023 12.972-16.574.977-14.778-13.046-30.824-37.796-30.676ZM102.75 264.75c-7.875 8.625-18.898 11.852-23.625 9.074-5.102-2.926-3.074-15.676 6.602-24.75 5.921-5.55 13.5-10.722 18.523-13.875 1.125-.676 2.852-1.722 4.875-2.926.375-.222.523-.296.523-.296.375-.227.829-.528 1.204-.75 3.597 13.046.222 24.523-8.102 33.523Zm57.523-39.074c-2.773 6.676-8.472 23.847-12 22.875-3-.824-4.875-13.801-.597-26.625 2.176-6.45 6.676-14.176 9.375-17.176 4.273-4.8 9.074-6.375 10.199-4.426 1.426 2.551-5.324 21.153-6.977 25.352Zm47.403 22.722c-1.125.602-2.25.977-2.778.676-.375-.222.528-.972.528-.972s5.926-6.375 8.324-9.301c1.352-1.727 2.926-3.676 4.648-5.926v.676c0 7.574-7.421 12.75-10.722 14.847ZM244.273 240c-.824-.602-.671-2.625 2.176-8.852 1.125-2.472 3.676-6.523 8.176-10.5.523 1.579.824 3.153.824 4.579-.074 9.671-6.972 13.273-11.176 14.773Zm0 0"/></svg>