<svg xmlns="http://www.w3.org/2000/svg" width="px" height="px" viewBox="0 0 384 384"><defs><linearGradient id="a" gradientUnits="userSpaceOnUse" x1="-.457" y1="516.219" x2="1.135" y2="516.219" gradientTransform="matrix(0 -101.59297 52.1346 0 -26644.685 223.12)"><stop offset="0" style="stop-color:#0052cc;stop-opacity:1"/><stop offset=".18" style="stop-color:#0052cc;stop-opacity:1"/><stop offset="1" style="stop-color:#2684ff;stop-opacity:1"/></linearGradient></defs><path style="stroke:none;fill-rule:nonzero;fill:#2684ff;fill-opacity:1" d="M344.25 152.25C344.25 68.176 276.074 0 192 0 117-.074 53.176 54.375 41.477 128.398 29.773 202.426 73.648 273.977 144.977 297v76.273c0 5.926 4.796 10.727 10.722 10.727H228c5.926 0 10.727-4.8 10.727-10.727v-76.199c62.773-20.25 105.449-78.75 105.523-144.824ZM192 203.7c-28.426 0-51.45-23.024-51.45-51.45 0-28.426 23.024-51.45 51.45-51.45 28.426 0 51.45 23.024 51.45 51.45 0 28.426-23.024 51.45-51.45 51.45Zm0 0"/><path style="stroke:none;fill-rule:nonzero;fill:url(#a)" d="M192 0v100.8c28.426 0 51.45 23.024 51.45 51.45 0 28.426-23.024 51.45-51.45 51.45 12.45 0 24.45 4.948 33.3 13.8 8.848 8.852 13.802 20.773 13.802 33.3v46.274c71.324-23.097 115.273-94.648 103.5-168.676C330.824 54.375 266.926-.074 192 0Zm0 0"/></svg>