<svg xmlns="http://www.w3.org/2000/svg" width="px" height="px" viewBox="0 0 384 384"><defs><linearGradient id="a" gradientUnits="userSpaceOnUse" x1=".401" y1="511.721" x2="2.401" y2="511.721" gradientTransform="matrix(197.33333 40.95998 -40.95998 71.04 20870.716 -36219.111)"><stop offset="0" style="stop-color:#2298bd;stop-opacity:1"/><stop offset="1" style="stop-color:#0ed7b5;stop-opacity:1"/></linearGradient></defs><path style="stroke:none;fill-rule:nonzero;fill:url(#a)" d="M192 76.8c-51.227 0-83.176 25.575-96 76.802 19.2-25.579 41.625-35.176 67.2-28.801 14.624 3.676 25.05 14.25 36.6 25.949C218.626 169.875 240.376 192 288 192c51.227 0 83.176-25.574 96-76.8-19.2 25.573-41.625 35.175-67.2 28.8-14.624-3.676-25.05-14.25-36.6-25.95C261.374 98.927 239.55 76.8 192 76.8ZM96 192c-51.227 0-83.176 25.574-96 76.8 19.2-25.573 41.625-35.175 67.2-28.8 14.624 3.676 25.05 14.25 36.6 25.95 18.825 19.124 40.575 41.25 88.2 41.25 51.227 0 83.176-25.575 96-76.802-19.2 25.579-41.625 35.176-67.2 28.801-14.624-3.676-25.05-14.25-36.6-25.949C165.374 214.125 143.55 192 96 192Zm0 0"/></svg>