<svg xmlns="http://www.w3.org/2000/svg" width="px" height="px" viewBox="0 0 384 384"><defs><linearGradient id="a" gradientUnits="userSpaceOnUse" x1="-.408" y1="511.002" x2="1.592" y2="511.002" gradientTransform="rotate(90 49113 49191.375) scale(192)"><stop offset="0" style="stop-color:#0091e6;stop-opacity:1"/><stop offset="1" style="stop-color:#0079bf;stop-opacity:1"/></linearGradient></defs><path style="stroke:none;fill-rule:nonzero;fill:url(#a)" d="M37.5 0h309C367.2 0 384 16.8 384 37.5v309c0 20.7-16.8 37.5-37.5 37.5h-309C16.8 384 0 367.2 0 346.5v-309C0 16.8 16.8 0 37.5 0Zm0 0"/><path style="stroke:none;fill-rule:nonzero;fill:#fff;fill-opacity:1" d="M234.977 49.95h81.148c9.977 0 18 8.027 18 18v132c0 9.976-8.023 18-18 18h-81.148c-9.977 0-18-8.024-18-18v-132c0-9.973 8.023-18 18-18ZM67.95 49.95h81.152c9.972 0 18 8.027 18 18v228c0 9.976-8.028 18-18 18H67.949c-9.972 0-18-8.024-18-18v-228c0-9.973 8.028-18 18-18Zm0 0"/></svg>