<?xml version="1.0" encoding="UTF-8"?>
<svg xmlns="http://www.w3.org/2000/svg" xmlns:xlink="http://www.w3.org/1999/xlink" width="px" height="px" viewBox="0 0 600 600" version="1.1">
<defs>
<filter id="alpha" filterUnits="objectBoundingBox" x="0%" y="0%" width="100%" height="100%">
  <feColorMatrix type="matrix" in="SourceGraphic" values="0 0 0 0 1 0 0 0 0 1 0 0 0 0 1 0 0 0 1 0"/>
</filter>
<mask id="mask0">
  <g filter="url(#alpha)">
<rect x="0" y="0" width="600" height="600" style="fill:rgb(0%,0%,0%);fill-opacity:0.0588235;stroke:none;"/>
  </g>
</mask>
<clipPath id="clip1">
  <rect x="0" y="0" width="600" height="600"/>
</clipPath>
<g id="surface5" clip-path="url(#clip1)">
<path style=" stroke:none;fill-rule:nonzero;fill:rgb(1.568627%,0%,0%);fill-opacity:1;" d="M 150.105469 114.535156 C 171.105469 70.859375 223.742188 51.199219 267.417969 72.199219 C 272.183594 74.488281 276.726562 77.214844 280.996094 80.335938 C 272.398438 66.378906 259.957031 54.660156 244.359375 47.160156 C 200.683594 26.160156 148.046875 45.820312 127.046875 89.496094 C 108.527344 128.019531 120.898438 172.160156 154.042969 196.449219 C 139.414062 172.476562 136.867188 142.070312 150.105469 114.535156 Z M 150.105469 114.535156 "/>
</g>
<mask id="mask1">
  <g filter="url(#alpha)">
<rect x="0" y="0" width="600" height="600" style="fill:rgb(0%,0%,0%);fill-opacity:0.501961;stroke:none;"/>
  </g>
</mask>
<clipPath id="clip2">
  <rect x="0" y="0" width="600" height="600"/>
</clipPath>
<g id="surface8" clip-path="url(#clip2)">
<path style=" stroke:none;fill-rule:nonzero;fill:rgb(100%,100%,100%);fill-opacity:1;" d="M 425.578125 113.707031 C 424.207031 106.988281 428.753906 100.609375 435.46875 99.238281 C 442.1875 97.867188 448.652344 102.003906 450.023438 108.71875 C 451.394531 115.4375 447.144531 122.15625 440.425781 123.527344 C 433.707031 124.898438 426.945312 120.425781 425.578125 113.707031 Z M 425.578125 113.707031 "/>
</g>
<mask id="mask2">
  <g filter="url(#alpha)">
<rect x="0" y="0" width="600" height="600" style="fill:rgb(0%,0%,0%);fill-opacity:0.501961;stroke:none;"/>
  </g>
</mask>
<clipPath id="clip3">
  <rect x="0" y="0" width="600" height="600"/>
</clipPath>
<g id="surface11" clip-path="url(#clip3)">
<path style=" stroke:none;fill-rule:nonzero;fill:rgb(100%,100%,100%);fill-opacity:1;" d="M 68.351562 259.042969 C 66.980469 252.324219 71.527344 245.945312 78.246094 244.574219 C 84.964844 243.203125 91.425781 247.339844 92.796875 254.058594 C 94.167969 260.773438 89.921875 267.492188 83.203125 268.863281 C 76.484375 270.234375 69.722656 265.761719 68.351562 259.042969 Z M 68.351562 259.042969 "/>
</g>
<mask id="mask3">
  <g filter="url(#alpha)">
<rect x="0" y="0" width="600" height="600" style="fill:rgb(0%,0%,0%);fill-opacity:0.0588235;stroke:none;"/>
  </g>
</mask>
<clipPath id="clip4">
  <rect x="0" y="0" width="600" height="600"/>
</clipPath>
<g id="surface14" clip-path="url(#clip4)">
<path style=" stroke:none;fill-rule:nonzero;fill:rgb(1.568627%,0%,0%);fill-opacity:1;" d="M 132.210938 380.179688 C 153.847656 367.679688 180.503906 369.882812 200.011719 383.484375 C 181.621094 357.425781 145.109375 348.917969 117.046875 365.128906 C 87.367188 382.273438 77.867188 420.867188 95.011719 450.546875 C 99.746094 458.742188 106.015625 465.378906 113.226562 470.347656 C 112.136719 468.808594 111.121094 467.226562 110.175781 465.597656 C 93.03125 435.917969 102.53125 397.328125 132.210938 380.179688 Z M 409.8125 330.683594 C 414.179688 287.734375 452.320312 255.324219 495.269531 259.691406 C 509.585938 261.148438 522.710938 266.515625 533.6875 274.617188 C 520.789062 257.585938 501.234375 245.632812 478.734375 243.347656 C 435.785156 238.984375 397.644531 271.390625 393.277344 314.339844 C 390.390625 342.757812 403.023438 368.554688 424.339844 384.027344 C 413.417969 369.316406 407.785156 350.648438 409.8125 330.683594 Z M 409.8125 330.683594 "/>
</g>
<mask id="mask4">
  <g filter="url(#alpha)">
<rect x="0" y="0" width="600" height="600" style="fill:rgb(0%,0%,0%);fill-opacity:0.101961;stroke:none;"/>
  </g>
</mask>
<clipPath id="clip5">
  <rect x="0" y="0" width="600" height="600"/>
</clipPath>
<g id="surface17" clip-path="url(#clip5)">
<path style=" stroke:none;fill-rule:nonzero;fill:rgb(1.568627%,0%,0%);fill-opacity:1;" d="M 298.613281 447.421875 C 175.144531 447.421875 66.085938 386.40625 0.105469 293.136719 C -3.0625 409.996094 65.207031 520.878906 180.503906 570.574219 C 331.414062 635.621094 508.222656 572.371094 573.273438 421.460938 C 591.164062 379.957031 598.652344 336.210938 597.046875 293.238281 C 531.058594 386.453125 422.035156 447.421875 298.613281 447.421875 Z M 298.613281 447.421875 "/>
</g>
</defs>
<g id="surface1">
<path style=" stroke:none;fill-rule:nonzero;fill:rgb(95.294118%,92.54902%,86.666667%);fill-opacity:1;" d="M 106.433594 70.789062 C 230.152344 -37.367188 416.960938 -18.273438 525.121094 105.449219 C 633.277344 229.167969 623.71875 412.8125 500 520.972656 C 376.28125 629.136719 185.960938 620.226562 77.804688 496.507812 C -30.355469 372.789062 -17.289062 178.949219 106.433594 70.789062 Z M 106.433594 70.789062 "/>
<path style=" stroke:none;fill-rule:nonzero;fill:rgb(92.54902%,88.235294%,81.568627%);fill-opacity:1;" d="M 126.214844 104.683594 C 243.304688 2.320312 417.804688 17.761719 517.414062 131.699219 C 617.023438 245.636719 605.757812 416.914062 488.667969 519.277344 C 371.578125 621.644531 193.667969 615.746094 94.058594 501.808594 C -5.550781 387.867188 9.121094 207.050781 126.214844 104.683594 Z M 126.214844 104.683594 "/>
<path style=" stroke:none;fill-rule:nonzero;fill:rgb(84.313725%,81.960784%,76.862745%);fill-opacity:1;" d="M 285.976562 165.910156 C 264.976562 209.589844 212.109375 226.078125 168.433594 205.078125 C 124.757812 184.078125 106.046875 133.175781 127.046875 89.496094 C 148.046875 45.820312 200.683594 26.160156 244.359375 47.160156 C 288.039062 68.160156 306.976562 122.234375 285.976562 165.910156 Z M 285.976562 165.910156 "/>
<use xlink:href="#surface5" mask="url(#mask0)"/>
<path style=" stroke:none;fill-rule:nonzero;fill:rgb(84.313725%,81.960784%,76.862745%);fill-opacity:1;" d="M 254.445312 256.003906 C 253.074219 249.285156 257.621094 242.902344 264.335938 241.53125 C 271.054688 240.160156 277.519531 244.296875 278.890625 251.015625 C 280.261719 257.734375 276.011719 264.453125 269.292969 265.824219 C 262.578125 267.195312 255.816406 262.722656 254.445312 256.003906 Z M 254.445312 256.003906 "/>
<use xlink:href="#surface8" mask="url(#mask1)"/>
<path style=" stroke:none;fill-rule:nonzero;fill:rgb(84.313725%,81.960784%,76.862745%);fill-opacity:1;" d="M 331.355469 466.972656 C 341.542969 458.066406 356.917969 459.640625 365.824219 469.824219 C 374.726562 480.007812 373.9375 495.125 363.753906 504.03125 C 353.570312 512.933594 337.902344 512.199219 329 502.015625 C 320.097656 491.832031 321.171875 475.875 331.355469 466.972656 Z M 331.355469 466.972656 "/>
<use xlink:href="#surface11" mask="url(#mask2)"/>
<path style=" stroke:none;fill-rule:nonzero;fill:rgb(84.313725%,81.960784%,76.862745%);fill-opacity:1;" d="M 549.558594 330.226562 C 545.195312 373.175781 505.898438 403 462.949219 398.632812 C 420 394.265625 388.910156 357.289062 393.277344 314.339844 C 397.644531 271.390625 435.785156 238.980469 478.734375 243.34375 C 521.683594 247.710938 553.925781 287.277344 549.558594 330.226562 Z M 203.019531 388.15625 C 220.164062 417.839844 208.722656 455.300781 179.042969 472.445312 C 149.359375 489.59375 112.160156 480.230469 95.015625 450.546875 C 77.867188 420.867188 87.367188 382.277344 117.046875 365.128906 C 146.730469 347.984375 185.871094 358.476562 203.019531 388.15625 Z M 203.019531 388.15625 "/>
<use xlink:href="#surface14" mask="url(#mask3)"/>
<use xlink:href="#surface17" mask="url(#mask4)"/>
</g>
</svg>
