<?xml version="1.0" encoding="UTF-8"?>
<svg xmlns="http://www.w3.org/2000/svg" xmlns:xlink="http://www.w3.org/1999/xlink" width="px" height="px" viewBox="0 0 600 600" version="1.1">
<g id="surface1">
<path style=" stroke:none;fill-rule:nonzero;fill:rgb(100%,71.372549%,33.333333%);fill-opacity:1;" d="M 300.015625 145.453125 L 300.007812 145.453125 C 214.792969 145.460938 145.464844 214.785156 145.464844 299.996094 C 145.464844 385.210938 214.792969 454.539062 300.007812 454.542969 L 300.015625 454.542969 C 385.230469 454.542969 454.554688 385.214844 454.554688 299.996094 C 454.554688 214.78125 385.230469 145.453125 300.015625 145.453125 Z M 300.015625 145.453125 "/>
<path style=" stroke:none;fill-rule:nonzero;fill:rgb(93.333333%,74.901961%,0%);fill-opacity:1;" d="M 300 90.910156 C 315.0625 90.910156 327.273438 78.699219 327.273438 63.636719 L 327.273438 27.273438 C 327.273438 12.210938 315.0625 0 300 0 C 284.9375 0 272.726562 12.210938 272.726562 27.273438 L 272.726562 63.636719 C 272.726562 78.699219 284.9375 90.910156 300 90.910156 Z M 300 600 C 315.0625 600 327.273438 587.789062 327.273438 572.726562 L 327.273438 536.363281 C 327.273438 521.300781 315.0625 509.089844 300 509.089844 C 284.9375 509.089844 272.726562 521.300781 272.726562 536.363281 L 272.726562 572.726562 C 272.726562 587.789062 284.9375 600 300 600 Z M 572.726562 272.726562 L 536.363281 272.726562 C 521.300781 272.726562 509.089844 284.9375 509.089844 300 C 509.089844 315.0625 521.300781 327.273438 536.363281 327.273438 L 572.726562 327.273438 C 587.789062 327.273438 600 315.0625 600 300 C 600 284.9375 587.789062 272.726562 572.726562 272.726562 Z M 27.273438 327.273438 L 63.632812 327.273438 C 78.695312 327.273438 90.90625 315.0625 90.90625 300 C 90.90625 284.9375 78.695312 272.726562 63.632812 272.726562 L 27.273438 272.726562 C 12.210938 272.726562 0 284.9375 0 300 C 0 315.0625 12.210938 327.273438 27.273438 327.273438 Z M 467.132812 160.136719 C 474.371094 160.148438 481.308594 157.273438 486.417969 152.148438 L 512.128906 126.433594 C 522.78125 115.785156 522.777344 98.515625 512.125 87.867188 C 501.476562 77.21875 484.207031 77.21875 473.558594 87.867188 L 447.847656 113.582031 C 437.199219 124.234375 437.199219 141.503906 447.851562 152.152344 C 452.960938 157.273438 459.898438 160.148438 467.132812 160.136719 Z M 126.4375 512.128906 L 152.148438 486.417969 C 162.800781 475.769531 162.800781 458.5 152.152344 447.847656 C 141.5 437.195312 124.234375 437.195312 113.582031 447.847656 L 87.867188 473.5625 C 77.21875 484.210938 77.214844 501.480469 87.863281 512.128906 C 92.976562 517.25 99.914062 520.125 107.148438 520.117188 C 114.386719 520.128906 121.328125 517.253906 126.4375 512.128906 Z M 486.417969 447.851562 C 475.769531 437.199219 458.5 437.199219 447.847656 447.847656 C 437.199219 458.496094 437.195312 475.765625 447.847656 486.414062 L 473.558594 512.128906 C 478.667969 517.25 485.609375 520.125 492.84375 520.117188 C 500.078125 520.128906 507.015625 517.253906 512.125 512.128906 C 522.773438 501.480469 522.777344 484.210938 512.128906 473.5625 Z M 113.574219 152.148438 C 118.902344 157.476562 125.882812 160.140625 132.859375 160.140625 C 139.839844 160.140625 146.820312 157.476562 152.144531 152.152344 C 162.792969 141.503906 162.796875 124.234375 152.148438 113.582031 L 126.4375 87.867188 C 115.785156 77.21875 98.519531 77.21875 87.867188 87.867188 C 77.21875 98.519531 77.214844 115.789062 87.863281 126.4375 Z M 113.574219 152.148438 "/>
<path style=" stroke:none;fill-rule:nonzero;fill:rgb(93.333333%,52.941176%,0%);fill-opacity:1;" d="M 300.007812 454.542969 L 300.007812 145.453125 C 214.792969 145.457031 145.464844 214.785156 145.464844 299.996094 C 145.464844 385.214844 214.792969 454.539062 300.007812 454.542969 Z M 300.007812 454.542969 "/>
</g>
</svg>
