<?xml version="1.0" encoding="UTF-8"?>
<svg xmlns="http://www.w3.org/2000/svg" xmlns:xlink="http://www.w3.org/1999/xlink" width="px" height="px" viewBox="0 0 600 600" version="1.1">
<g id="surface1">
<path style=" stroke:none;fill-rule:nonzero;fill:rgb(74.901961%,71.372549%,11.764706%);fill-opacity:1;" d="M 302.78125 525.144531 C 288.972656 525.144531 277.777344 526.777344 277.777344 546.394531 C 277.777344 555.925781 288.972656 600 302.78125 600 C 316.589844 600 327.785156 555.925781 327.785156 546.394531 C 327.785156 526.777344 316.589844 525.144531 302.78125 525.144531 Z M 413.265625 495.539062 C 401.304688 502.441406 392.429688 509.457031 402.238281 526.445312 C 407 534.695312 438.734375 567.269531 450.695312 560.367188 C 462.652344 553.460938 450.308594 509.691406 445.546875 501.441406 C 435.738281 484.453125 425.222656 488.632812 413.265625 495.539062 Z M 525.054688 403.632812 C 508.0625 393.824219 501.050781 402.699219 494.144531 414.660156 C 487.242188 426.617188 483.058594 437.128906 500.050781 446.9375 C 508.300781 451.703125 552.070312 464.046875 558.972656 452.085938 C 565.878906 440.128906 533.304688 408.394531 525.054688 403.632812 Z M 545.003906 279.171875 C 525.386719 279.171875 523.75 290.363281 523.75 304.175781 C 523.75 317.984375 525.386719 329.175781 545.003906 329.175781 C 554.53125 329.175781 598.609375 317.984375 598.609375 304.175781 C 598.609375 290.363281 554.53125 279.171875 545.003906 279.171875 Z M 500.050781 161.40625 C 483.0625 171.21875 487.242188 181.730469 494.148438 193.6875 C 501.050781 205.644531 508.066406 214.523438 525.054688 204.714844 C 533.304688 199.953125 565.878906 168.21875 558.976562 156.261719 C 552.070312 144.300781 508.300781 156.644531 500.050781 161.40625 Z M 192.296875 495.539062 C 180.335938 488.632812 169.824219 484.453125 160.015625 501.441406 C 155.25 509.695312 142.90625 553.460938 154.867188 560.367188 C 166.824219 567.273438 198.558594 534.699219 203.324219 526.445312 C 213.132812 509.457031 204.253906 502.445312 192.296875 495.539062 Z M 497.140625 304.171875 C 497.140625 250.503906 475.386719 201.910156 440.214844 166.738281 L 165.347656 441.605469 C 200.519531 476.777344 249.109375 498.53125 302.78125 498.53125 C 410.121094 498.53125 497.140625 411.515625 497.140625 304.171875 Z M 497.140625 304.171875 "/>
<path style=" stroke:none;fill-rule:nonzero;fill:rgb(77.647059%,72.941176%,33.72549%);fill-opacity:1;" d="M 192.316406 112.78125 C 180.429688 119.640625 169.992188 123.796875 160.328125 107.367188 C 160.230469 107.269531 160.132812 107.078125 160.039062 106.886719 C 155.207031 98.671875 142.933594 54.894531 154.820312 47.933594 C 163.804688 42.714844 184.199219 60.015625 195.503906 72.289062 C 199.371094 76.347656 202.171875 79.824219 203.332031 81.855469 C 213.09375 98.863281 204.300781 105.917969 192.316406 112.78125 Z M 327.808594 61.945312 L 327.808594 62.621094 C 327.515625 81.566406 316.402344 83.207031 302.777344 83.207031 C 291.855469 83.207031 282.578125 82.144531 279.195312 72.09375 C 278.230469 69.484375 277.746094 66.101562 277.746094 61.945312 C 277.746094 56.050781 282 37.011719 288.476562 23.289062 C 292.628906 14.785156 297.558594 8.3125 302.777344 8.3125 C 304.324219 8.3125 305.871094 8.890625 307.320312 9.953125 C 319.011719 17.78125 327.808594 53.441406 327.808594 61.945312 Z M 111.425781 193.667969 C 104.46875 205.652344 97.511719 214.542969 80.5 204.6875 C 75.863281 202.074219 63.589844 190.867188 54.890625 179.460938 C 54.796875 179.363281 54.699219 179.269531 54.699219 179.171875 C 48.03125 170.378906 43.585938 161.488281 46.578125 156.265625 C 53.539062 144.285156 97.21875 156.652344 105.53125 161.390625 C 106.980469 162.257812 108.332031 163.128906 109.492188 164 C 121.769531 173.085938 117.707031 182.75 111.425781 193.667969 Z M 81.855469 304.128906 C 81.855469 317.660156 80.308594 328.773438 61.65625 329.160156 L 60.59375 329.160156 C 51.414062 329.160156 10.050781 318.722656 7.152344 305.578125 L 7.054688 305.578125 C 7.054688 305.097656 6.957031 304.613281 6.957031 304.128906 C 6.957031 298.8125 13.625 293.789062 22.324219 289.828125 C 36.046875 283.351562 54.792969 279.195312 60.59375 279.195312 C 66.101562 279.195312 70.160156 280.066406 73.15625 281.613281 C 80.984375 285.671875 81.855469 294.273438 81.855469 304.128906 Z M 80.507812 403.632812 C 72.257812 408.394531 39.683594 440.128906 46.589844 452.085938 C 53.492188 464.046875 97.261719 451.703125 105.511719 446.9375 C 122.5 437.128906 118.320312 426.617188 111.414062 414.660156 C 104.511719 402.699219 97.496094 393.824219 80.507812 403.632812 Z M 413.265625 112.808594 C 425.222656 119.710938 435.738281 123.894531 445.546875 106.90625 C 450.308594 98.652344 462.652344 54.886719 450.695312 47.980469 C 438.734375 41.074219 407 73.648438 402.238281 81.898438 C 392.429688 98.890625 401.304688 105.902344 413.265625 112.808594 Z M 302.78125 109.8125 C 195.4375 109.8125 108.421875 196.832031 108.421875 304.171875 C 108.421875 357.84375 130.175781 406.433594 165.347656 441.605469 L 440.214844 166.742188 C 405.039062 131.566406 356.453125 109.8125 302.78125 109.8125 Z M 302.78125 109.8125 "/>
<path style=" stroke:none;fill-rule:nonzero;fill:rgb(93.72549%,90.588235%,28.235294%);fill-opacity:1;" d="M 295.789062 516.753906 C 281.984375 516.753906 270.785156 518.390625 270.785156 538.007812 C 270.785156 547.535156 281.980469 591.613281 295.789062 591.613281 C 309.601562 591.613281 320.792969 547.535156 320.792969 538.007812 C 320.792969 518.390625 309.597656 516.753906 295.789062 516.753906 Z M 406.273438 487.152344 C 394.316406 494.054688 385.4375 501.070312 395.246094 518.058594 C 400.011719 526.308594 431.746094 558.882812 443.703125 551.980469 C 455.664062 545.074219 443.320312 501.304688 438.554688 493.054688 C 428.746094 476.066406 418.234375 480.246094 406.273438 487.152344 Z M 518.0625 395.242188 C 501.074219 385.433594 494.058594 394.3125 487.15625 406.269531 C 480.25 418.230469 476.070312 428.742188 493.058594 438.550781 C 501.308594 443.3125 545.078125 455.65625 551.984375 443.699219 C 558.886719 431.738281 526.316406 400.007812 518.0625 395.242188 Z M 538.015625 270.78125 C 518.394531 270.78125 516.761719 281.976562 516.761719 295.785156 C 516.761719 309.59375 518.394531 320.789062 538.015625 320.789062 C 547.539062 320.789062 591.617188 309.59375 591.617188 295.785156 C 591.617188 281.976562 547.539062 270.78125 538.015625 270.78125 Z M 493.058594 153.019531 C 476.070312 162.828125 480.25 173.339844 487.15625 185.300781 C 494.058594 197.257812 501.074219 206.136719 518.0625 196.328125 C 526.316406 191.5625 558.886719 159.832031 551.984375 147.871094 C 545.078125 135.914062 501.3125 148.253906 493.058594 153.019531 Z M 185.304688 487.152344 C 173.347656 480.246094 162.832031 476.066406 153.023438 493.054688 C 148.261719 501.304688 135.917969 545.074219 147.878906 551.980469 C 159.835938 558.882812 191.570312 526.308594 196.332031 518.058594 C 206.140625 501.066406 197.265625 494.054688 185.304688 487.152344 Z M 490.148438 295.785156 C 490.148438 242.113281 468.394531 193.523438 433.222656 158.351562 L 158.359375 433.21875 C 193.53125 468.390625 242.121094 490.144531 295.789062 490.144531 C 403.132812 490.144531 490.148438 403.125 490.148438 295.785156 Z M 490.148438 295.785156 "/>
<path style=" stroke:none;fill-rule:nonzero;fill:rgb(98.039216%,94.901961%,68.627451%);fill-opacity:1;" d="M 185.261719 104.375 C 176.273438 109.589844 168.058594 113.265625 160.328125 107.371094 C 157.816406 105.535156 155.398438 102.632812 152.980469 98.476562 C 148.246094 90.261719 135.875 46.484375 147.859375 39.625 C 159.359375 32.957031 188.835938 62.527344 195.503906 72.289062 C 195.890625 72.769531 196.179688 73.15625 196.375 73.542969 C 206.136719 90.457031 197.246094 97.511719 185.261719 104.375 Z M 320.753906 53.539062 C 320.753906 54.214844 320.753906 54.894531 320.65625 55.472656 C 319.980469 73.253906 309.15625 74.800781 295.820312 74.800781 C 290.792969 74.800781 286.152344 74.609375 282.191406 73.351562 C 281.128906 73.0625 280.164062 72.578125 279.195312 72.09375 C 276.007812 70.453125 273.496094 67.746094 272.140625 63.398438 C 272.042969 63.300781 272.140625 63.300781 272.140625 63.300781 C 271.273438 60.691406 270.789062 57.40625 270.789062 53.539062 C 270.789062 47.839844 274.847656 29.570312 281.128906 15.945312 C 284.898438 7.730469 289.539062 1.160156 294.464844 0.195312 C 294.949219 0.0976562 295.335938 0 295.820312 0 C 299.976562 0 303.9375 4.058594 307.320312 9.953125 C 308.480469 11.886719 309.542969 14.011719 310.605469 16.332031 C 316.789062 29.863281 320.753906 47.933594 320.753906 53.539062 Z M 104.46875 185.261719 C 97.511719 197.246094 90.554688 206.136719 73.542969 196.375 C 70.0625 194.347656 62.238281 187.582031 54.890625 179.464844 C 54.796875 179.367188 54.699219 179.269531 54.699219 179.171875 C 44.648438 168.15625 35.660156 154.722656 39.621094 147.863281 C 46.484375 135.878906 90.261719 148.25 98.476562 152.984375 C 104.5625 156.558594 108.042969 160.230469 109.492188 164 C 112.105469 170.667969 108.816406 177.722656 104.46875 185.261719 Z M 74.800781 295.820312 C 74.800781 309.640625 73.15625 320.753906 53.539062 320.753906 L 53.25 320.753906 C 47.355469 320.65625 29.667969 316.789062 16.332031 310.703125 C 12.949219 309.058594 9.761719 307.414062 7.152344 305.578125 L 7.054688 305.578125 C 2.707031 302.585938 0 299.296875 0 295.820312 C 0 295.433594 0 294.949219 0.195312 294.5625 C 1.0625 289.828125 6.859375 285.574219 14.300781 281.804688 C 28.121094 275.234375 47.644531 270.789062 53.539062 270.789062 C 55.761719 270.789062 57.792969 270.980469 59.628906 271.273438 C 67.554688 272.429688 71.320312 276.296875 73.15625 281.613281 C 73.640625 282.867188 73.929688 284.316406 74.125 285.765625 C 74.703125 288.765625 74.800781 292.242188 74.800781 295.820312 Z M 98.476562 438.558594 C 92.386719 442.132812 66.390625 449.867188 50.734375 448.609375 C 48.898438 448.511719 47.257812 448.222656 45.710938 447.738281 C 42.910156 446.964844 40.78125 445.613281 39.625 443.679688 C 38.558594 441.84375 38.367188 439.425781 38.949219 436.820312 C 42.234375 422.515625 66.488281 399.226562 73.542969 395.261719 C 77.023438 393.234375 80.117188 391.976562 82.824219 391.492188 C 92.101562 389.464844 97.414062 394.972656 102.34375 402.703125 C 103.019531 403.863281 103.792969 405.023438 104.46875 406.28125 C 106.886719 410.628906 109.109375 414.6875 109.980469 418.648438 C 111.621094 425.703125 109.398438 432.277344 98.476562 438.558594 Z M 406.273438 104.417969 C 418.234375 111.324219 428.746094 115.503906 438.554688 98.515625 C 443.320312 90.265625 455.664062 46.496094 443.703125 39.589844 C 431.746094 32.6875 400.011719 65.257812 395.246094 73.511719 C 385.4375 90.5 394.316406 97.515625 406.273438 104.417969 Z M 433.242188 158.394531 L 158.394531 433.242188 C 155.527344 430.375 152.753906 427.410156 150.085938 424.351562 C 142.8125 416.128906 136.25 407.300781 130.464844 397.96875 C 112.105469 368.300781 101.472656 333.316406 101.472656 295.820312 C 101.472656 188.453125 188.453125 101.472656 295.820312 101.472656 C 330.902344 101.472656 363.855469 110.75 392.363281 127.179688 C 407.34375 135.683594 421.066406 146.21875 433.242188 158.394531 Z M 433.242188 158.394531 "/>
</g>
</svg>
