<svg xmlns="http://www.w3.org/2000/svg" width="24" height="24" fill="none"><path fill="url(#a)" fill-rule="evenodd" d="M12 3c-1.406 0-2.7.056-3.855.141-1.73.128-2.34.189-3.07.589-.645.354-1.408 1.175-1.713 1.844C3.019 6.324 3 7.072 3 9.139v1.678c0 1.145.004 1.58.069 1.924A4 4 0 0 0 6.26 15.93c.344.065.778.069 1.924.069h.032c.116 0 .26 0 .4.019a2 2 0 0 1 1.437.948c.073.12.13.253.175.36l.012.029.46 1.07c.36.844.606 1.412.818 1.806.172.32.265.404.276.416a.5.5 0 0 0 .412 0c.011-.012.104-.097.276-.416.213-.394.457-.962.819-1.805l.459-1.071.012-.03c.046-.106.102-.238.175-.36a2 2 0 0 1 1.437-.947c.14-.02.284-.02.4-.019h.032c1.146 0 1.58-.004 1.924-.069a4 4 0 0 0 3.191-3.191c.065-.344.069-.779.069-1.924V9.138c0-2.066-.02-2.814-.362-3.564-.305-.67-1.068-1.49-1.713-1.844-.73-.4-1.34-.461-3.07-.589A52.516 52.516 0 0 0 12 3ZM7.997 1.147a54.51 54.51 0 0 1 8.006 0l.132.01c1.562.114 2.607.19 3.752.82 1.023.561 2.086 1.705 2.57 2.767.544 1.19.544 2.393.543 4.21v1.98c0 .987 0 1.624-.104 2.176a6 6 0 0 1-4.786 4.787C17.558 18 16.92 18 15.934 18h-.27l-.004.001-.002.003-.06.14-.479 1.116c-.336.786-.616 1.44-.877 1.922-.252.467-.591.986-1.144 1.256a2.5 2.5 0 0 1-2.196 0c-.553-.27-.892-.79-1.144-1.256-.26-.483-.54-1.136-.877-1.922l-.479-1.116a6.828 6.828 0 0 0-.06-.14l-.002-.003h-.004L8.184 18h-.118c-.987 0-1.624 0-2.176-.104a6 6 0 0 1-4.786-4.786C1 12.558 1 11.92 1 10.934V8.954c0-1.817-.001-3.02.542-4.21.485-1.062 1.548-2.206 2.57-2.767 1.146-.63 2.19-.706 3.753-.82l.132-.01Z" clip-rule="evenodd"/><defs><linearGradient id="a" x1="12" x2="12" y1="1" y2="22.692" gradientUnits="userSpaceOnUse"><stop offset=".172" stop-color="#fff"/><stop offset=".521" stop-color="#F9E2E2"/><stop offset=".844" stop-color="#fff"/></linearGradient></defs></svg>