<svg width="24" height="24" viewBox="0 0 24 24" fill="none" xmlns="http://www.w3.org/2000/svg">
<path fill-rule="evenodd" clip-rule="evenodd" d="M12.2796 3.7158C12.097 3.66261 11.903 3.66261 11.7204 3.7158C11.6678 3.7311 11.5755 3.7694 11.379 3.91818C11.1723 4.07464 10.9193 4.29856 10.5251 4.64897L5.2855 9.30641C4.64315 9.87739 4.46105 10.0496 4.33446 10.24C4.21268 10.4232 4.12195 10.6252 4.06594 10.8379C4.00771 11.0591 4.00001 11.3095 4.00001 12.169V17.17C4.00001 18.041 4.00082 18.6331 4.0388 19.0905C4.0758 19.536 4.14281 19.7634 4.22519 19.922C4.41494 20.2872 4.71278 20.5851 5.07807 20.7748C5.23664 20.8572 5.46403 20.9242 5.90947 20.9612C6.36688 20.9992 6.95899 21 7.83001 21H8.00001V18C8.00001 15.7909 9.79088 14 12 14C14.2092 14 16 15.7909 16 18V21H16.17C17.041 21 17.6332 20.9992 18.0906 20.9612C18.536 20.9242 18.7634 20.8572 18.922 20.7748C19.2872 20.5851 19.5851 20.2872 19.7748 19.922C19.8572 19.7634 19.9242 19.536 19.9612 19.0905C19.9992 18.6331 20 18.041 20 17.17V12.169C20 11.3095 19.9923 11.0591 19.9341 10.8379C19.8781 10.6252 19.7874 10.4232 19.6656 10.24C19.539 10.0496 19.3569 9.87739 18.7145 9.30641L13.4749 4.64897C13.0807 4.29856 12.8277 4.07464 12.621 3.91818C12.4245 3.7694 12.3322 3.7311 12.2796 3.7158ZM11.1612 1.79557C11.709 1.63602 12.291 1.63602 12.8389 1.79557C13.219 1.90627 13.5342 2.10096 13.8283 2.32364C14.1053 2.53336 14.4172 2.81065 14.7764 3.12995L20.0433 7.81159C20.0716 7.8368 20.0996 7.86166 20.1272 7.8862C20.6489 8.34942 21.043 8.69935 21.3311 9.13278C21.5747 9.49916 21.7561 9.90322 21.8682 10.3287C22.0007 10.832 22.0004 11.359 22.0001 12.0566C22 12.0936 22 12.131 22 12.169V17.212C22 18.0305 22 18.7061 21.9544 19.2561C21.9069 19.8274 21.8051 20.3523 21.5497 20.8439C21.1702 21.5745 20.5745 22.1702 19.8439 22.5497C19.3523 22.805 18.8274 22.9069 18.2561 22.9544C17.7061 23 17.0305 23 16.212 23H15.805C15.7973 23 15.7894 23 15.7815 23C15.6604 23.0001 15.5157 23.0001 15.3884 22.9895C15.2407 22.9773 15.0293 22.9458 14.8086 22.8311C14.5346 22.6888 14.3112 22.4654 14.1689 22.1915C14.0542 21.9708 14.0227 21.7593 14.0105 21.6116C13.9999 21.4843 14 21.3397 14 21.2185L14 18C14 16.8954 13.1046 16 12 16C10.8954 16 10 16.8954 10 18L10 21.2185C10.0001 21.3396 10.0001 21.4843 9.98955 21.6116C9.97728 21.7593 9.94578 21.9707 9.83113 22.1915C9.68882 22.4654 9.46544 22.6888 9.19148 22.8311C8.97076 22.9458 8.75935 22.9773 8.61166 22.9895C8.4843 23.0001 8.33965 23.0001 8.21853 23C8.21059 23 8.20274 23 8.19501 23H7.78804C6.9695 23 6.29395 23 5.74395 22.9544C5.1726 22.9069 4.64775 22.805 4.15612 22.5497C3.42554 22.1702 2.82986 21.5745 2.45036 20.8439C2.19498 20.3523 2.09311 19.8274 2.04567 19.2561C1.99999 18.7061 2 18.0305 2.00001 17.212L2.00001 12.169C2.00001 12.131 2 12.0936 1.99998 12.0566C1.99961 11.359 1.99934 10.832 2.13186 10.3287C2.24389 9.90322 2.42534 9.49916 2.6689 9.13278C2.95702 8.69935 3.35111 8.34942 3.87278 7.8862C3.90042 7.86166 3.92842 7.8368 3.95677 7.81159L9.2236 3.12996C9.5828 2.81065 9.89473 2.53336 10.1717 2.32364C10.4659 2.10096 10.7811 1.90627 11.1612 1.79557Z" fill="url(#paint0_linear_103_130)"/>
<defs>
<linearGradient id="paint0_linear_103_130" x1="12" y1="1.67591" x2="12" y2="23" gradientUnits="userSpaceOnUse">
<stop offset="0.171875" stop-color="white"/>
<stop offset="0.520833" stop-color="#F9E2E2"/>
<stop offset="0.84375" stop-color="white"/>
</linearGradient>
</defs>
</svg>
