<svg xmlns="http://www.w3.org/2000/svg" width="24" height="24" fill="none"><path fill="url(#a)" d="M9 10a1 1 0 1 1-2 0 1 1 0 0 1 2 0Z"/><path fill="url(#b)" d="M16 11a1 1 0 1 0 0-2 1 1 0 0 0 0 2Z"/><path fill="url(#c)" fill-rule="evenodd" d="M7.103 6H7a5 5 0 0 1 10 0h-.103c.503 0 .94.002 1.301.032.402.033.802.107 1.185.306a3 3 0 0 1 1.28 1.28c.198.382.272.782.305 1.184.032.38.032.843.032 1.379v3.423c0 1.102 0 1.99-.06 2.71-.061.74-.191 1.39-.503 1.99a5 5 0 0 1-2.132 2.133c-.6.312-1.25.442-1.991.503-.72.06-1.608.06-2.71.06h-3.208c-1.102 0-1.99 0-2.71-.06-.74-.061-1.39-.191-1.99-.503a5 5 0 0 1-2.133-2.132c-.312-.6-.442-1.25-.503-1.991-.06-.72-.06-1.608-.06-2.71V10.18c0-.536 0-.999.032-1.38.033-.401.107-.8.306-1.184a3 3 0 0 1 1.28-1.28C5 6.14 5.4 6.066 5.801 6.033 6.164 6.002 6.6 6 7.103 6ZM9 6a3 3 0 1 1 6 0H9ZM5.539 8.113c.05-.027.152-.065.428-.088C6.255 8 6.634 8 7.22 8h9.56c.586 0 .965 0 1.253.025.276.023.378.061.428.088a1 1 0 0 1 .426.426c.026.05.065.152.088.428.024.288.025.667.025 1.253v3.34c0 1.156 0 1.961-.053 2.588-.05.615-.146.968-.285 1.235a2.999 2.999 0 0 1-1.28 1.28c-.266.138-.619.233-1.234.284-.627.052-1.432.053-2.588.053h-3.12c-1.156 0-1.961 0-2.588-.053-.615-.05-.968-.146-1.235-.285a3 3 0 0 1-1.28-1.28c-.138-.266-.233-.619-.284-1.234C5 15.521 5 14.716 5 13.56v-3.34c0-.586 0-.965.025-1.253.023-.276.062-.378.088-.428a1 1 0 0 1 .426-.426Z" clip-rule="evenodd"/><defs><linearGradient id="a" x1="12" x2="12" y1="1" y2="21" gradientUnits="userSpaceOnUse"><stop offset=".151" stop-color="#fff"/><stop offset=".214" stop-color="#fff"/><stop offset=".474" stop-color="#F9E2E2"/><stop offset=".901" stop-color="#fff"/></linearGradient><linearGradient id="b" x1="12" x2="12" y1="1" y2="21" gradientUnits="userSpaceOnUse"><stop offset=".151" stop-color="#fff"/><stop offset=".214" stop-color="#fff"/><stop offset=".474" stop-color="#F9E2E2"/><stop offset=".901" stop-color="#fff"/></linearGradient><linearGradient id="c" x1="12" x2="12" y1="1" y2="21" gradientUnits="userSpaceOnUse"><stop offset=".151" stop-color="#fff"/><stop offset=".214" stop-color="#fff"/><stop offset=".474" stop-color="#F9E2E2"/><stop offset=".901" stop-color="#fff"/></linearGradient></defs></svg>