<?xml version="1.0" encoding="UTF-8"?>
<svg xmlns="http://www.w3.org/2000/svg" xmlns:xlink="http://www.w3.org/1999/xlink" width="px" height="px" viewBox="0 0 36 36" version="1.1">
<g id="surface1">
<path style=" stroke:none;fill-rule:evenodd;fill:rgb(100%,100%,100%);fill-opacity:1;" d="M 18 0.75 C 13.730469 0.75 9.601562 2.261719 6.339844 5.019531 C 3.089844 7.765625 0.925781 11.582031 0.238281 15.78125 C -0.445312 19.980469 0.394531 24.28125 2.605469 27.910156 C 4.820312 31.554688 8.261719 34.289062 12.308594 35.628906 C 13.203125 35.796875 13.539062 35.242188 13.539062 34.769531 C 13.539062 34.300781 13.519531 32.933594 13.515625 31.4375 C 8.507812 32.519531 7.449219 29.324219 7.449219 29.324219 C 6.632812 27.25 5.453125 26.707031 5.453125 26.707031 C 3.816406 25.597656 5.574219 25.617188 5.574219 25.617188 C 7.382812 25.746094 8.335938 27.464844 8.335938 27.464844 C 9.9375 30.199219 12.546875 29.410156 13.570312 28.945312 C 13.734375 27.789062 14.199219 27 14.714844 26.550781 C 10.714844 26.101562 6.511719 24.566406 6.511719 17.707031 C 6.488281 15.925781 7.152344 14.207031 8.367188 12.902344 C 8.183594 12.453125 7.566406 10.632812 8.542969 8.164062 C 8.542969 8.164062 10.054688 7.683594 13.492188 9.996094 C 16.445312 9.195312 19.554688 9.195312 22.507812 9.996094 C 25.945312 7.683594 27.453125 8.164062 27.453125 8.164062 C 28.433594 10.628906 27.816406 12.449219 27.628906 12.902344 C 28.847656 14.207031 29.515625 15.929688 29.488281 17.714844 C 29.488281 24.585938 25.277344 26.101562 21.269531 26.542969 C 21.914062 27.101562 22.488281 28.1875 22.488281 29.859375 C 22.488281 32.253906 22.46875 34.179688 22.46875 34.769531 C 22.46875 35.246094 22.792969 35.804688 23.707031 35.628906 C 27.753906 34.289062 31.191406 31.554688 33.410156 27.910156 C 35.621094 24.277344 36.457031 19.976562 35.773438 15.78125 C 35.085938 11.582031 32.921875 7.765625 29.671875 5.015625 C 26.410156 2.261719 22.277344 0.75 18.007812 0.75 Z M 18 0.75 "/>
<path style=" stroke:none;fill-rule:nonzero;fill:rgb(100%,100%,100%);fill-opacity:1;" d="M 12.042969 29.960938 C 12.042969 30.109375 11.875 30.234375 11.660156 30.234375 C 11.445312 30.238281 11.269531 30.121094 11.269531 29.972656 C 11.269531 29.828125 11.4375 29.703125 11.652344 29.703125 C 11.867188 29.699219 12.042969 29.816406 12.042969 29.960938 Z M 13.414062 29.734375 C 13.441406 29.878906 13.289062 30.03125 13.074219 30.066406 C 12.863281 30.101562 12.671875 30.015625 12.648438 29.875 C 12.621094 29.730469 12.773438 29.578125 12.984375 29.539062 C 13.191406 29.5 13.386719 29.589844 13.414062 29.734375 Z M 10.570312 29.863281 C 10.523438 30 10.320312 30.0625 10.117188 30.003906 C 9.917969 29.945312 9.78125 29.78125 9.820312 29.636719 C 9.859375 29.496094 10.066406 29.429688 10.269531 29.496094 C 10.476562 29.558594 10.609375 29.71875 10.570312 29.863281 Z M 9.21875 29.28125 C 9.121094 29.390625 8.921875 29.359375 8.757812 29.214844 C 8.59375 29.066406 8.554688 28.863281 8.652344 28.757812 C 8.75 28.648438 8.949219 28.679688 9.121094 28.824219 C 9.289062 28.96875 9.324219 29.175781 9.21875 29.28125 Z M 8.257812 28.285156 C 8.144531 28.363281 7.957031 28.285156 7.855469 28.132812 C 7.796875 28.074219 7.761719 28 7.761719 27.917969 C 7.761719 27.835938 7.796875 27.761719 7.855469 27.703125 C 7.964844 27.628906 8.152344 27.703125 8.257812 27.855469 C 8.359375 28.007812 8.363281 28.207031 8.257812 28.285156 Z M 7.546875 27.257812 C 7.421875 27.320312 7.265625 27.285156 7.175781 27.175781 C 7.0625 27.050781 7.039062 26.878906 7.125 26.800781 C 7.214844 26.722656 7.378906 26.757812 7.492188 26.882812 C 7.609375 27.007812 7.636719 27.179688 7.546875 27.257812 Z M 6.816406 26.449219 C 6.777344 26.539062 6.632812 26.5625 6.519531 26.5 C 6.402344 26.4375 6.316406 26.324219 6.359375 26.230469 C 6.398438 26.140625 6.539062 26.117188 6.65625 26.179688 C 6.773438 26.242188 6.859375 26.359375 6.816406 26.449219 Z M 6.816406 26.449219 "/>
</g>
</svg>
