<?xml version="1.0" encoding="UTF-8"?>
<svg xmlns="http://www.w3.org/2000/svg" xmlns:xlink="http://www.w3.org/1999/xlink" width="px" height="px" viewBox="0 0 945 450" version="1.1">
<defs>
<linearGradient id="linear0" gradientUnits="userSpaceOnUse" x1="945" y1="385" x2="945" y2="571" gradientTransform="matrix(0.000000000000000046,-0.75,0.749405,0.000000000000000046,355.967486,933.75)">
<stop offset="0" style="stop-color:rgb(100%,42.352941%,63.137255%);stop-opacity:1;"/>
<stop offset="1" style="stop-color:rgb(100%,49.411765%,43.137255%);stop-opacity:1;"/>
</linearGradient>
</defs>
<g id="surface1">
<path style=" stroke:none;fill-rule:nonzero;fill:rgb(87.843137%,87.843137%,87.843137%);fill-opacity:1;" d="M 535.824219 0 L 558.308594 0 C 587.277344 0 610.765625 23.503906 610.765625 52.5 L 610.765625 397.5 C 610.765625 426.496094 587.277344 450 558.308594 450 L 535.824219 450 C 506.851562 450 483.367188 426.496094 483.367188 397.5 L 483.367188 52.5 C 483.367188 23.503906 506.851562 0 535.824219 0 Z M 535.824219 0 "/>
<path style=" stroke:none;fill-rule:nonzero;fill:rgb(87.843137%,87.843137%,87.843137%);fill-opacity:1;" d="M 374.703125 0 L 397.183594 0 C 426.15625 0 449.644531 23.503906 449.644531 52.5 L 449.644531 397.5 C 449.644531 426.496094 426.15625 450 397.183594 450 L 374.703125 450 C 345.730469 450 322.246094 426.496094 322.246094 397.5 L 322.246094 52.5 C 322.246094 23.503906 345.730469 0 374.703125 0 Z M 374.703125 0 "/>
<path style=" stroke:none;fill-rule:nonzero;fill:rgb(87.843137%,87.843137%,87.843137%);fill-opacity:1;" d="M 933.007812 375 L 933.007812 397.5 C 933.007812 426.496094 909.523438 450 880.550781 450 L 535.824219 450 C 506.851562 450 483.367188 426.496094 483.367188 397.5 L 483.367188 375 C 483.367188 346.003906 506.851562 322.5 535.824219 322.5 L 880.550781 322.5 C 909.523438 322.5 933.007812 346.003906 933.007812 375 Z M 933.007812 375 "/>
<path style=" stroke:none;fill-rule:nonzero;fill:rgb(87.843137%,87.843137%,87.843137%);fill-opacity:1;" d="M 449.644531 375 L 449.644531 397.5 C 449.644531 426.496094 426.15625 450 397.183594 450 L 52.457031 450 C 23.488281 450 0 426.496094 0 397.5 L 0 375 C 0 346.003906 23.488281 322.5 52.457031 322.5 L 397.183594 322.5 C 426.15625 322.5 449.644531 346.003906 449.644531 375 Z M 449.644531 375 "/>
<path style=" stroke:none;fill-rule:nonzero;fill:rgb(87.843137%,87.843137%,87.843137%);fill-opacity:1;" d="M 892.542969 450 L 870.058594 450 C 841.085938 450 817.601562 426.496094 817.601562 397.5 L 817.601562 52.5 C 817.601562 23.503906 841.085938 0 870.058594 0 L 892.542969 0 C 921.511719 0 945 23.503906 945 52.5 L 945 397.5 C 945 426.496094 921.511719 450 892.542969 450 Z M 892.542969 450 "/>
<path style=" stroke:none;fill-rule:nonzero;fill:rgb(87.843137%,87.843137%,87.843137%);fill-opacity:1;" d="M 644.488281 75 L 644.488281 52.5 C 644.488281 23.503906 667.976562 0 696.945312 0 L 892.542969 0 C 921.511719 0 945 23.503906 945 52.5 L 945 75 C 945 103.996094 921.511719 127.5 892.542969 127.5 L 696.945312 127.5 C 667.976562 127.5 644.488281 103.996094 644.488281 75 Z M 644.488281 75 "/>
<path style=" stroke:none;fill-rule:nonzero;fill:rgb(87.843137%,87.843137%,87.843137%);fill-opacity:1;" d="M 63.699219 236.25 L 63.699219 213.75 C 63.699219 184.753906 87.1875 161.25 116.15625 161.25 L 236.0625 161.25 C 265.035156 161.25 288.519531 184.753906 288.519531 213.75 L 288.519531 236.25 C 288.519531 265.246094 265.035156 288.75 236.0625 288.75 L 116.15625 288.75 C 87.1875 288.75 63.699219 265.246094 63.699219 236.25 Z M 63.699219 236.25 "/>
<path style=" stroke:none;fill-rule:nonzero;fill:url(#linear0);" d="M 644.488281 236.25 L 644.488281 213.75 C 644.488281 184.753906 667.976562 161.25 696.945312 161.25 L 731.417969 161.25 C 760.390625 161.25 783.878906 184.753906 783.878906 213.75 L 783.878906 236.25 C 783.878906 265.246094 760.390625 288.75 731.417969 288.75 L 696.945312 288.75 C 667.976562 288.75 644.488281 265.246094 644.488281 236.25 Z M 644.488281 236.25 "/>
</g>
</svg>
