<svg xmlns="http://www.w3.org/2000/svg" width="px" height="px" viewBox="0 0 964 580"><defs><linearGradient id="a" gradientUnits="userSpaceOnUse" x1="958" y1="385" x2="958" y2="571" gradientTransform="matrix(0 -.74935 .74903 0 365.526 942.687)"><stop offset="0" style="stop-color:#ff6ca1;stop-opacity:1"/><stop offset="1" style="stop-color:#ff7e6e;stop-opacity:1"/></linearGradient><linearGradient id="b" gradientUnits="userSpaceOnUse" x1="0" y1="726" x2="1287" y2="726" gradientTransform="scale(.74903 .74935)"><stop offset="0" style="stop-color:#ff6ca1;stop-opacity:1"/><stop offset=".41" style="stop-color:#ff7587;stop-opacity:1"/><stop offset="1" style="stop-color:#ff7e6e;stop-opacity:1"/></linearGradient></defs><path style="stroke:none;fill-rule:nonzero;fill:#e0e0e0;fill-opacity:1" d="M545.293 0h22.473c28.957 0 52.43 23.484 52.43 52.453v344.703c0 28.973-23.473 52.457-52.43 52.457h-22.473c-28.957 0-52.434-23.484-52.434-52.457V52.453C492.86 23.484 516.336 0 545.293 0ZM384.25 0h22.473c28.957 0 52.433 23.484 52.433 52.453v344.703c0 28.973-23.476 52.457-52.433 52.457H384.25c-28.957 0-52.43-23.484-52.43-52.457V52.453C331.82 23.484 355.293 0 384.25 0Zm0 0"/><path style="stroke:none;fill-rule:nonzero;fill:#e0e0e0;fill-opacity:1" d="M942.277 374.676v22.48c0 28.973-23.472 52.457-52.43 52.457H545.294c-28.957 0-52.434-23.484-52.434-52.457v-22.48c0-28.969 23.477-52.453 52.434-52.453h344.555c28.957 0 52.43 23.484 52.43 52.453ZM459.156 374.676v22.48c0 28.973-23.476 52.457-52.433 52.457H62.168c-28.957 0-52.43-23.484-52.43-52.457v-22.48c0-28.969 23.473-52.453 52.43-52.453h344.555c28.957 0 52.433 23.484 52.433 52.453Zm0 0"/><path style="stroke:none;fill-rule:nonzero;fill:#e0e0e0;fill-opacity:1" d="M901.832 449.613h-22.473c-28.957 0-52.43-23.484-52.43-52.457V52.453C826.93 23.484 850.403 0 879.36 0h22.473c28.957 0 52.43 23.484 52.43 52.453v344.703c0 28.973-23.473 52.457-52.43 52.457Zm0 0"/><path style="stroke:none;fill-rule:nonzero;fill:#e0e0e0;fill-opacity:1" d="M653.902 74.934v-22.48C653.902 23.483 677.375 0 706.336 0h195.496c28.957 0 52.43 23.484 52.43 52.453v22.48c0 28.973-23.473 52.458-52.43 52.458H706.336c-28.961 0-52.434-23.485-52.434-52.457ZM73.406 236.047v-22.48c0-28.97 23.473-52.458 52.43-52.458H245.68c28.96 0 52.433 23.489 52.433 52.457v22.48c0 28.97-23.472 52.454-52.433 52.454H125.836c-28.957 0-52.43-23.484-52.43-52.453Zm0 0"/><path style="stroke:none;fill-rule:nonzero;fill:url(#a)" d="M653.902 236.047v-22.48c0-28.97 23.473-52.458 52.434-52.458h34.453c28.957 0 52.434 23.489 52.434 52.457v22.48c0 28.97-23.477 52.454-52.434 52.454h-34.453c-28.961 0-52.434-23.484-52.434-52.453Zm0 0"/><path style="stroke:none;fill-rule:nonzero;fill:url(#b)" d="m69.39 568.43-5.304.808v-58.18h14.832V578.5H59.594l-43.145-58.18 5.211-.808V578.5H6.922v-67.441h19.773Zm79.016-29.496v11.691h-48.265v-11.691Zm-38.02 5.847-4.495 28.594-6.649-7.555h51.95v12.68H90.522l5.211-33.719-5.21-33.722h60.218v12.68h-51.5l6.649-7.555Zm88.419 26.977h-6.743l27.504-60.7h16.18l-32 67.442h-17.168l-31.906-67.441h16.36Zm99.965-32.824v11.691H250.5v-11.691Zm-38.024 5.847-4.492 28.594-6.652-7.555h51.953v12.68h-60.672l5.215-33.719-5.215-33.722h60.222v12.68h-51.503l6.652-7.555Zm63.035-3.777h25.977c3.414 0 6.11-.781 8.09-2.34 2.035-1.617 3.054-3.836 3.054-6.652 0-2.817-1.02-5.008-3.054-6.567-1.98-1.558-4.676-2.336-8.09-2.336h-28.223l6.918-7.824V578.5h-15.277v-67.441h38.379c4.914 0 9.226.898 12.941 2.699 3.715 1.738 6.621 4.164 8.719 7.281 2.098 3.117 3.148 6.777 3.148 10.973 0 4.136-1.05 7.761-3.148 10.879-2.098 3.117-5.004 5.578-8.719 7.375-3.715 1.738-8.027 2.609-12.941 2.609H323.78Zm11.684 5.933h17.437L378.34 578.5h-17.887Zm143.539 2.34a31.094 31.094 0 0 1-2.426 11.688c-1.5 3.66-3.656 6.926-6.473 9.805-2.816 2.816-6.293 5.035-10.425 6.652-4.137 1.617-8.93 2.43-14.383 2.43-5.274 0-10.215-.782-14.828-2.34-4.555-1.617-8.57-3.926-12.047-6.922-3.414-3-6.082-6.656-8-10.973-1.918-4.375-2.875-9.32-2.875-14.836 0-5.515.957-10.433 2.875-14.75 1.976-4.375 4.703-8.062 8.18-11.058 3.476-2.996 7.55-5.278 12.226-6.836 4.672-1.617 9.766-2.426 15.277-2.426 7.192 0 13.422 1.14 18.696 3.418 5.273 2.219 9.527 5.305 12.765 9.262 3.297 3.957 5.332 8.48 6.114 13.578h-15.371c-.602-2.758-1.918-5.125-3.957-7.106-1.977-1.976-4.524-3.508-7.641-4.586-3.055-1.078-6.59-1.617-10.606-1.617-4.734 0-8.835.867-12.312 2.606-3.418 1.68-6.082 4.168-8 7.464-1.86 3.297-2.785 7.313-2.785 12.051 0 4.735.988 8.782 2.965 12.137 1.976 3.36 4.793 5.937 8.449 7.734 3.656 1.739 7.969 2.61 12.941 2.61 4.856 0 9.11-.75 12.766-2.25 3.656-1.559 6.531-3.715 8.629-6.473 2.156-2.816 3.387-6.144 3.683-9.98Zm-29.57 6.203v-11.058h34.964V578.5H473.43l-2.067-27.336 3.145 4.316Zm83.238 24.372c-7.852 0-14.742-1.47-20.676-4.407-5.871-2.937-10.453-7.015-13.75-12.23-3.297-5.278-4.945-11.422-4.945-18.434 0-7.015 1.648-13.129 4.945-18.343 3.297-5.278 7.879-9.383 13.75-12.32 5.934-2.938 12.824-4.407 20.676-4.407 7.848 0 14.71 1.469 20.582 4.406 5.933 2.938 10.547 7.043 13.844 12.32 3.293 5.215 4.941 11.329 4.941 18.344 0 7.012-1.648 13.157-4.941 18.434-3.297 5.215-7.91 9.293-13.844 12.23-5.871 2.938-12.734 4.407-20.582 4.407Zm0-13.579c4.914 0 9.137-.87 12.672-2.609 3.597-1.738 6.351-4.226 8.27-7.465 1.976-3.234 2.964-7.043 2.964-11.418 0-4.379-.988-8.183-2.965-11.422-1.918-3.238-4.672-5.722-8.27-7.46-3.534-1.743-7.757-2.61-12.671-2.61-4.856 0-9.078.867-12.676 2.61-3.594 1.738-6.379 4.222-8.36 7.46-1.913 3.239-2.874 7.043-2.874 11.422 0 4.375.96 8.184 2.875 11.418 1.98 3.239 4.765 5.727 8.36 7.465 3.597 1.738 7.82 2.61 12.675 2.61Zm104.914-27.34v11.692H589.32v-11.691Zm-38.02 5.848-4.496 28.594-6.648-7.555h51.953v12.68h-60.672l5.211-33.719-5.21-33.722h60.218v12.68h-51.5l6.648-7.555Zm48.832 11.688h15.461c.36 2.281 1.348 4.289 2.965 6.027 1.676 1.676 3.895 2.996 6.653 3.957 2.816.899 6.05 1.348 9.707 1.348 5.332 0 9.527-.75 12.582-2.25 3.117-1.559 4.675-3.715 4.675-6.473 0-2.16-.898-3.808-2.699-4.945-1.738-1.2-5.004-2.07-9.797-2.61l-13.57-1.527c-8.75-.96-15.102-2.996-19.055-6.113-3.898-3.18-5.843-7.586-5.843-13.219 0-4.437 1.289-8.215 3.863-11.332 2.637-3.117 6.324-5.484 11.058-7.105 4.73-1.676 10.305-2.516 16.715-2.516 6.235 0 11.778.93 16.63 2.789 4.855 1.797 8.718 4.344 11.597 7.64 2.875 3.239 4.433 7.044 4.672 11.423H698.55c-.297-1.981-1.196-3.688-2.696-5.125-1.437-1.5-3.445-2.641-6.023-3.418-2.574-.84-5.602-1.258-9.078-1.258-4.852 0-8.719.718-11.594 2.156-2.875 1.437-4.312 3.477-4.312 6.113 0 2.04.836 3.63 2.515 4.77 1.739 1.078 4.762 1.886 9.078 2.426l14.114 1.707c6.23.66 11.172 1.742 14.828 3.238 3.715 1.441 6.351 3.387 7.91 5.844 1.617 2.46 2.426 5.578 2.426 9.355 0 4.496-1.375 8.45-4.133 11.867-2.695 3.36-6.504 5.965-11.414 7.824-4.914 1.86-10.668 2.79-17.258 2.79-6.71 0-12.613-.961-17.707-2.88-5.094-1.976-9.11-4.706-12.047-8.183-2.933-3.535-4.523-7.644-4.762-12.32Zm136.63 23.383c-7.852 0-14.743-1.47-20.673-4.407-5.875-2.937-10.457-7.015-13.753-12.23-3.293-5.278-4.942-11.422-4.942-18.434 0-7.015 1.649-13.129 4.942-18.343 3.296-5.278 7.878-9.383 13.753-12.32 5.93-2.938 12.82-4.407 20.672-4.407 7.848 0 14.711 1.469 20.582 4.406 5.934 2.938 10.547 7.043 13.844 12.32 3.297 5.215 4.942 11.329 4.942 18.344 0 7.012-1.645 13.157-4.942 18.434-3.297 5.215-7.91 9.293-13.844 12.23-5.87 2.938-12.734 4.407-20.582 4.407Zm0-13.579c4.913 0 9.136-.87 12.671-2.609 3.598-1.738 6.352-4.226 8.27-7.465 1.98-3.234 2.968-7.043 2.968-11.418 0-4.379-.988-8.183-2.968-11.422-1.918-3.238-4.672-5.722-8.27-7.46-3.535-1.743-7.758-2.61-12.672-2.61-4.855 0-9.078.867-12.675 2.61-3.594 1.738-6.38 4.222-8.356 7.46-1.918 3.239-2.879 7.043-2.879 11.422 0 4.375.961 8.184 2.88 11.418 1.976 3.239 4.76 5.727 8.355 7.465 3.597 1.738 7.82 2.61 12.675 2.61Zm57.261-26.617h48.719v13.04h-48.719Zm50.246-28.597v13.128H842.47l7.73-7.824V578.5h-15.281v-67.441Zm17.61 28.597h48.718v13.04h-48.718Zm50.246-28.597v13.128h-50.067l7.73-7.824V578.5h-15.28v-67.441Zm0 0"/></svg>