<?xml version="1.0" encoding="UTF-8"?>
<svg xmlns="http://www.w3.org/2000/svg" xmlns:xlink="http://www.w3.org/1999/xlink" width="px" height="px" viewBox="0 0 1309 949" version="1.1">
<defs>
<linearGradient id="linear0" gradientUnits="userSpaceOnUse" x1="1187" y1="643" x2="1187" y2="829" gradientTransform="matrix(0.000000000000000046,-0.750198,0.750143,0.000000000000000046,344.315759,1309.094862)">
<stop offset="0" style="stop-color:rgb(100%,42.352941%,63.137255%);stop-opacity:1;"/>
<stop offset="1" style="stop-color:rgb(100%,49.411765%,43.137255%);stop-opacity:1;"/>
</linearGradient>
<linearGradient id="linear1" gradientUnits="userSpaceOnUse" x1="229" y1="984" x2="1516" y2="984" gradientTransform="matrix(0.750143,0,0,0.750198,0,0)">
<stop offset="0" style="stop-color:rgb(100%,42.352941%,63.137255%);stop-opacity:1;"/>
<stop offset="0.41" style="stop-color:rgb(100%,45.882353%,52.941176%);stop-opacity:1;"/>
<stop offset="1" style="stop-color:rgb(100%,49.411765%,43.137255%);stop-opacity:1;"/>
</linearGradient>
</defs>
<g id="surface1">
<rect x="0" y="0" width="1309" height="949" style="fill:rgb(34.509804%,34.509804%,34.509804%);fill-opacity:1;stroke:none;"/>
<path style=" stroke:none;fill-rule:nonzero;fill:rgb(87.843137%,87.843137%,87.843137%);fill-opacity:1;" d="M 717.886719 193.550781 L 740.390625 193.550781 C 769.390625 193.550781 792.902344 217.0625 792.902344 246.066406 L 792.902344 591.15625 C 792.902344 620.160156 769.390625 643.667969 740.390625 643.667969 L 717.886719 643.667969 C 688.886719 643.667969 665.378906 620.160156 665.378906 591.15625 L 665.378906 246.066406 C 665.378906 217.0625 688.886719 193.550781 717.886719 193.550781 Z M 717.886719 193.550781 "/>
<path style=" stroke:none;fill-rule:nonzero;fill:rgb(87.843137%,87.843137%,87.843137%);fill-opacity:1;" d="M 556.605469 193.550781 L 579.109375 193.550781 C 608.109375 193.550781 631.621094 217.0625 631.621094 246.066406 L 631.621094 591.15625 C 631.621094 620.160156 608.109375 643.667969 579.109375 643.667969 L 556.605469 643.667969 C 527.605469 643.667969 504.097656 620.160156 504.097656 591.15625 L 504.097656 246.066406 C 504.097656 217.0625 527.605469 193.550781 556.605469 193.550781 Z M 556.605469 193.550781 "/>
<path style=" stroke:none;fill-rule:nonzero;fill:rgb(87.843137%,87.843137%,87.843137%);fill-opacity:1;" d="M 1115.464844 568.648438 L 1115.464844 591.15625 C 1115.464844 620.160156 1091.953125 643.667969 1062.953125 643.667969 L 717.886719 643.667969 C 688.886719 643.667969 665.378906 620.160156 665.378906 591.15625 L 665.378906 568.648438 C 665.378906 539.648438 688.886719 516.136719 717.886719 516.136719 L 1062.953125 516.136719 C 1091.953125 516.136719 1115.464844 539.648438 1115.464844 568.648438 Z M 1115.464844 568.648438 "/>
<path style=" stroke:none;fill-rule:nonzero;fill:rgb(87.843137%,87.843137%,87.843137%);fill-opacity:1;" d="M 631.621094 568.648438 L 631.621094 591.15625 C 631.621094 620.160156 608.109375 643.667969 579.109375 643.667969 L 234.042969 643.667969 C 205.042969 643.667969 181.535156 620.160156 181.535156 591.15625 L 181.535156 568.648438 C 181.535156 539.648438 205.042969 516.136719 234.042969 516.136719 L 579.109375 516.136719 C 608.109375 516.136719 631.621094 539.648438 631.621094 568.648438 Z M 631.621094 568.648438 "/>
<path style=" stroke:none;fill-rule:nonzero;fill:rgb(87.843137%,87.843137%,87.843137%);fill-opacity:1;" d="M 1074.957031 643.667969 L 1052.449219 643.667969 C 1023.449219 643.667969 999.941406 620.160156 999.941406 591.15625 L 999.941406 246.066406 C 999.941406 217.0625 1023.449219 193.550781 1052.449219 193.550781 L 1074.957031 193.550781 C 1103.957031 193.550781 1127.464844 217.0625 1127.464844 246.066406 L 1127.464844 591.15625 C 1127.464844 620.160156 1103.957031 643.667969 1074.957031 643.667969 Z M 1074.957031 643.667969 "/>
<path style=" stroke:none;fill-rule:nonzero;fill:rgb(87.843137%,87.843137%,87.843137%);fill-opacity:1;" d="M 826.65625 268.570312 L 826.65625 246.066406 C 826.65625 217.0625 850.167969 193.550781 879.167969 193.550781 L 1074.957031 193.550781 C 1103.957031 193.550781 1127.464844 217.0625 1127.464844 246.066406 L 1127.464844 268.570312 C 1127.464844 297.574219 1103.957031 321.085938 1074.957031 321.085938 L 879.167969 321.085938 C 850.167969 321.085938 826.65625 297.574219 826.65625 268.570312 Z M 826.65625 268.570312 "/>
<path style=" stroke:none;fill-rule:nonzero;fill:rgb(87.843137%,87.843137%,87.843137%);fill-opacity:1;" d="M 245.296875 429.863281 L 245.296875 407.355469 C 245.296875 378.355469 268.804688 354.84375 297.808594 354.84375 L 417.828125 354.84375 C 446.832031 354.84375 470.339844 378.355469 470.339844 407.355469 L 470.339844 429.863281 C 470.339844 458.867188 446.832031 482.378906 417.828125 482.378906 L 297.808594 482.378906 C 268.804688 482.378906 245.296875 458.867188 245.296875 429.863281 Z M 245.296875 429.863281 "/>
<path style=" stroke:none;fill-rule:nonzero;fill:url(#linear0);" d="M 826.65625 429.863281 L 826.65625 407.355469 C 826.65625 378.355469 850.167969 354.84375 879.167969 354.84375 L 913.675781 354.84375 C 942.675781 354.84375 966.183594 378.355469 966.183594 407.355469 L 966.183594 429.863281 C 966.183594 458.867188 942.675781 482.378906 913.675781 482.378906 L 879.167969 482.378906 C 850.167969 482.378906 826.65625 458.867188 826.65625 429.863281 Z M 826.65625 429.863281 "/>
<path style=" stroke:none;fill-rule:nonzero;fill:url(#linear1);" d="M 241.277344 762.621094 L 235.964844 763.429688 L 235.964844 705.1875 L 250.816406 705.1875 L 250.816406 772.703125 L 231.464844 772.703125 L 188.257812 714.457031 L 193.476562 713.648438 L 193.476562 772.703125 L 178.714844 772.703125 L 178.714844 705.1875 L 198.519531 705.1875 Z M 320.410156 733.09375 L 320.410156 744.796875 L 272.070312 744.796875 L 272.070312 733.09375 Z M 282.332031 738.945312 L 277.832031 767.570312 L 271.171875 760.011719 L 323.199219 760.011719 L 323.199219 772.703125 L 262.4375 772.703125 L 267.660156 738.945312 L 262.4375 705.1875 L 322.75 705.1875 L 322.75 717.878906 L 271.171875 717.878906 L 277.832031 710.316406 Z M 370.882812 765.953125 L 364.132812 765.953125 L 391.675781 705.1875 L 407.878906 705.1875 L 375.832031 772.703125 L 358.640625 772.703125 L 326.683594 705.1875 L 343.066406 705.1875 Z M 470.996094 733.09375 L 470.996094 744.796875 L 422.65625 744.796875 L 422.65625 733.09375 Z M 432.917969 738.945312 L 428.417969 767.570312 L 421.757812 760.011719 L 473.785156 760.011719 L 473.785156 772.703125 L 413.023438 772.703125 L 418.246094 738.945312 L 413.023438 705.1875 L 473.335938 705.1875 L 473.335938 717.878906 L 421.757812 717.878906 L 428.417969 710.316406 Z M 496.046875 735.164062 L 522.058594 735.164062 C 525.480469 735.164062 528.179688 734.382812 530.160156 732.824219 C 532.203125 731.203125 533.222656 728.980469 533.222656 726.160156 C 533.222656 723.339844 532.203125 721.148438 530.160156 719.589844 C 528.179688 718.027344 525.480469 717.25 522.058594 717.25 L 493.792969 717.25 L 500.726562 709.417969 L 500.726562 772.703125 L 485.421875 772.703125 L 485.421875 705.1875 L 523.859375 705.1875 C 528.78125 705.1875 533.101562 706.085938 536.824219 707.886719 C 540.542969 709.625 543.453125 712.058594 545.554688 715.179688 C 547.65625 718.300781 548.703125 721.960938 548.703125 726.160156 C 548.703125 730.300781 547.65625 733.933594 545.554688 737.054688 C 543.453125 740.175781 540.542969 742.636719 536.824219 744.4375 C 533.101562 746.175781 528.78125 747.046875 523.859375 747.046875 L 496.046875 747.046875 Z M 507.746094 741.105469 L 525.210938 741.105469 L 550.683594 772.703125 L 532.773438 772.703125 Z M 651.5 743.445312 C 651.4375 747.527344 650.628906 751.429688 649.070312 755.148438 C 647.570312 758.808594 645.410156 762.082031 642.585938 764.960938 C 639.765625 767.78125 636.285156 770.003906 632.144531 771.625 C 628.003906 773.242188 623.203125 774.054688 617.742188 774.054688 C 612.460938 774.054688 607.511719 773.273438 602.890625 771.714844 C 598.328125 770.09375 594.308594 767.78125 590.828125 764.78125 C 587.40625 761.78125 584.738281 758.121094 582.816406 753.796875 C 580.894531 749.417969 579.9375 744.464844 579.9375 738.945312 C 579.9375 733.421875 580.894531 728.5 582.816406 724.179688 C 584.796875 719.800781 587.527344 716.109375 591.007812 713.109375 C 594.488281 710.105469 598.570312 707.828125 603.25 706.265625 C 607.929688 704.644531 613.03125 703.835938 618.554688 703.835938 C 625.753906 703.835938 631.996094 704.976562 637.277344 707.257812 C 642.558594 709.476562 646.820312 712.566406 650.058594 716.527344 C 653.359375 720.488281 655.398438 725.019531 656.179688 730.121094 L 640.789062 730.121094 C 640.1875 727.363281 638.867188 724.992188 636.828125 723.011719 C 634.847656 721.03125 632.296875 719.5 629.175781 718.417969 C 626.113281 717.339844 622.574219 716.800781 618.554688 716.800781 C 613.8125 716.800781 609.703125 717.667969 606.222656 719.410156 C 602.800781 721.089844 600.128906 723.582031 598.210938 726.882812 C 596.347656 730.183594 595.417969 734.203125 595.417969 738.945312 C 595.417969 743.6875 596.410156 747.738281 598.390625 751.097656 C 600.371094 754.457031 603.191406 757.039062 606.851562 758.839844 C 610.511719 760.582031 614.832031 761.449219 619.8125 761.449219 C 624.675781 761.449219 628.933594 760.699219 632.597656 759.199219 C 636.257812 757.640625 639.136719 755.480469 641.238281 752.71875 C 643.398438 749.898438 644.628906 746.566406 644.929688 742.726562 Z M 621.882812 749.65625 L 621.882812 738.585938 L 656.902344 738.585938 L 656.902344 772.703125 L 645.917969 772.703125 L 643.847656 745.335938 L 647 749.65625 Z M 705.246094 774.054688 C 697.386719 774.054688 690.484375 772.582031 684.542969 769.644531 C 678.660156 766.703125 674.070312 762.621094 670.769531 757.398438 C 667.46875 752.117188 665.820312 745.964844 665.820312 738.945312 C 665.820312 731.921875 667.46875 725.800781 670.769531 720.578125 C 674.070312 715.296875 678.660156 711.1875 684.542969 708.246094 C 690.484375 705.304688 697.386719 703.835938 705.246094 703.835938 C 713.109375 703.835938 719.980469 705.304688 725.859375 708.246094 C 731.800781 711.1875 736.421875 715.296875 739.722656 720.578125 C 743.023438 725.800781 744.675781 731.921875 744.675781 738.945312 C 744.675781 745.964844 743.023438 752.117188 739.722656 757.398438 C 736.421875 762.621094 731.800781 766.703125 725.859375 769.644531 C 719.980469 772.582031 713.109375 774.054688 705.246094 774.054688 Z M 705.246094 760.460938 C 710.167969 760.460938 714.398438 759.589844 717.9375 757.851562 C 721.539062 756.109375 724.300781 753.617188 726.21875 750.378906 C 728.199219 747.136719 729.191406 743.324219 729.191406 738.945312 C 729.191406 734.5625 728.199219 730.753906 726.21875 727.511719 C 724.300781 724.269531 721.539062 721.78125 717.9375 720.039062 C 714.398438 718.300781 710.167969 717.429688 705.246094 717.429688 C 700.386719 717.429688 696.15625 718.300781 692.554688 720.039062 C 688.953125 721.78125 686.164062 724.269531 684.183594 727.511719 C 682.261719 730.753906 681.300781 734.5625 681.300781 738.945312 C 681.300781 743.324219 682.261719 747.136719 684.183594 750.378906 C 686.164062 753.617188 688.953125 756.109375 692.554688 757.851562 C 696.15625 759.589844 700.386719 760.460938 705.246094 760.460938 Z M 810.320312 733.09375 L 810.320312 744.796875 L 761.980469 744.796875 L 761.980469 733.09375 Z M 772.242188 738.945312 L 767.742188 767.570312 L 761.082031 760.011719 L 813.109375 760.011719 L 813.109375 772.703125 L 752.347656 772.703125 L 757.570312 738.945312 L 752.347656 705.1875 L 812.660156 705.1875 L 812.660156 717.878906 L 761.082031 717.878906 L 767.742188 710.316406 Z M 821.144531 750.648438 L 836.628906 750.648438 C 836.988281 752.929688 837.976562 754.9375 839.597656 756.679688 C 841.277344 758.359375 843.5 759.679688 846.257812 760.640625 C 849.078125 761.539062 852.320312 761.992188 855.980469 761.992188 C 861.320312 761.992188 865.523438 761.242188 868.582031 759.738281 C 871.703125 758.179688 873.265625 756.019531 873.265625 753.257812 C 873.265625 751.097656 872.363281 749.449219 870.5625 748.308594 C 868.824219 747.105469 865.554688 746.238281 860.75 745.695312 L 847.160156 744.167969 C 838.398438 743.207031 832.035156 741.164062 828.074219 738.042969 C 824.175781 734.863281 822.222656 730.453125 822.222656 724.8125 C 822.222656 720.371094 823.515625 716.589844 826.09375 713.46875 C 828.734375 710.347656 832.425781 707.976562 837.167969 706.355469 C 841.910156 704.675781 847.488281 703.835938 853.910156 703.835938 C 860.152344 703.835938 865.703125 704.765625 870.5625 706.625 C 875.425781 708.425781 879.296875 710.976562 882.175781 714.277344 C 885.054688 717.519531 886.617188 721.328125 886.855469 725.710938 L 871.375 725.710938 C 871.074219 723.730469 870.171875 722.019531 868.671875 720.578125 C 867.234375 719.078125 865.222656 717.9375 862.640625 717.160156 C 860.0625 716.320312 857.03125 715.898438 853.550781 715.898438 C 848.691406 715.898438 844.820312 716.617188 841.9375 718.058594 C 839.058594 719.5 837.617188 721.539062 837.617188 724.179688 C 837.617188 726.222656 838.457031 727.8125 840.136719 728.953125 C 841.878906 730.03125 844.910156 730.84375 849.230469 731.382812 L 863.363281 733.09375 C 869.605469 733.753906 874.554688 734.832031 878.214844 736.332031 C 881.9375 737.773438 884.578125 739.726562 886.136719 742.183594 C 887.757812 744.644531 888.566406 747.765625 888.566406 751.546875 C 888.566406 756.050781 887.1875 760.011719 884.425781 763.429688 C 881.726562 766.792969 877.914062 769.402344 872.996094 771.261719 C 868.074219 773.125 862.3125 774.054688 855.710938 774.054688 C 848.988281 774.054688 843.078125 773.09375 837.976562 771.171875 C 832.875 769.191406 828.855469 766.460938 825.914062 762.980469 C 822.976562 759.441406 821.382812 755.328125 821.144531 750.648438 Z M 957.976562 774.054688 C 950.117188 774.054688 943.214844 772.582031 937.273438 769.644531 C 931.394531 766.703125 926.800781 762.621094 923.5 757.398438 C 920.199219 752.117188 918.550781 745.964844 918.550781 738.945312 C 918.550781 731.921875 920.199219 725.800781 923.5 720.578125 C 926.800781 715.296875 931.394531 711.1875 937.273438 708.246094 C 943.214844 705.304688 950.117188 703.835938 957.976562 703.835938 C 965.839844 703.835938 972.710938 705.304688 978.59375 708.246094 C 984.53125 711.1875 989.152344 715.296875 992.453125 720.578125 C 995.753906 725.800781 997.40625 731.921875 997.40625 738.945312 C 997.40625 745.964844 995.753906 752.117188 992.453125 757.398438 C 989.152344 762.621094 984.53125 766.703125 978.59375 769.644531 C 972.710938 772.582031 965.839844 774.054688 957.976562 774.054688 Z M 957.976562 760.460938 C 962.898438 760.460938 967.128906 759.589844 970.671875 757.851562 C 974.269531 756.109375 977.03125 753.617188 978.953125 750.378906 C 980.933594 747.136719 981.921875 743.324219 981.921875 738.945312 C 981.921875 734.5625 980.933594 730.753906 978.953125 727.511719 C 977.03125 724.269531 974.269531 721.78125 970.671875 720.039062 C 967.128906 718.300781 962.898438 717.429688 957.976562 717.429688 C 953.117188 717.429688 948.886719 718.300781 945.285156 720.039062 C 941.683594 721.78125 938.894531 724.269531 936.914062 727.511719 C 934.992188 730.753906 934.035156 734.5625 934.035156 738.945312 C 934.035156 743.324219 934.992188 747.136719 936.914062 750.378906 C 938.894531 753.617188 941.683594 756.109375 945.285156 757.851562 C 948.886719 759.589844 953.117188 760.460938 957.976562 760.460938 Z M 1015.328125 733.8125 L 1064.117188 733.8125 L 1064.117188 746.867188 L 1015.328125 746.867188 Z M 1065.644531 705.1875 L 1065.644531 718.328125 L 1015.507812 718.328125 L 1023.246094 710.496094 L 1023.246094 772.703125 L 1007.945312 772.703125 L 1007.945312 705.1875 Z M 1083.28125 733.8125 L 1132.070312 733.8125 L 1132.070312 746.867188 L 1083.28125 746.867188 Z M 1133.601562 705.1875 L 1133.601562 718.328125 L 1083.460938 718.328125 L 1091.203125 710.496094 L 1091.203125 772.703125 L 1075.902344 772.703125 L 1075.902344 705.1875 Z M 1133.601562 705.1875 "/>
</g>
</svg>
