<svg width="1745" height="1265" viewBox="0 0 1745 1265" fill="none" xmlns="http://www.w3.org/2000/svg">
<rect width="1745" height="1265" fill="#2B2B2B"/>
<rect x="887" y="258" width="170" height="600" rx="70" fill="#E0E0E0"/>
<rect x="672" y="258" width="170" height="600" rx="70" fill="#E0E0E0"/>
<rect x="1487" y="688" width="170" height="600" rx="70" transform="rotate(90 1487 688)" fill="#E0E0E0"/>
<rect x="842" y="688" width="170" height="600" rx="70" transform="rotate(90 842 688)" fill="#E0E0E0"/>
<rect x="1503" y="858" width="170" height="600" rx="70" transform="rotate(-180 1503 858)" fill="#E0E0E0"/>
<rect x="1102" y="428" width="170" height="401" rx="70" transform="rotate(-90 1102 428)" fill="#E0E0E0"/>
<rect x="327" y="643" width="170" height="300" rx="70" transform="rotate(-90 327 643)" fill="#E0E0E0"/>
<rect x="1102" y="643" width="170" height="186" rx="70" transform="rotate(-90 1102 643)" fill="url(#paint0_linear_501_284)"/>
<path d="M321.64 1016.56L314.56 1017.64V940H334.36V1030H308.56L250.96 952.36L257.92 951.28V1030H238.24V940H264.64L321.64 1016.56ZM427.132 977.2V992.8H362.692V977.2H427.132ZM376.372 985L370.372 1023.16L361.492 1013.08H430.852V1030H349.852L356.812 985L349.852 940H430.252V956.92H361.492L370.372 946.84L376.372 985ZM494.416 1021H485.416L522.136 940H543.736L501.016 1030H478.096L435.496 940H457.336L494.416 1021ZM627.874 977.2V992.8H563.434V977.2H627.874ZM577.114 985L571.114 1023.16L562.234 1013.08H631.594V1030H550.594L557.554 985L550.594 940H630.994V956.92H562.234L571.114 946.84L577.114 985ZM661.267 979.96H695.947C700.507 979.96 704.107 978.92 706.747 976.84C709.467 974.68 710.827 971.72 710.827 967.96C710.827 964.2 709.467 961.28 706.747 959.2C704.107 957.12 700.507 956.08 695.947 956.08H658.267L667.507 945.64V1030H647.107V940H698.347C704.907 940 710.667 941.2 715.627 943.6C720.587 945.92 724.467 949.16 727.267 953.32C730.067 957.48 731.467 962.36 731.467 967.96C731.467 973.48 730.067 978.32 727.267 982.48C724.467 986.64 720.587 989.92 715.627 992.32C710.667 994.64 704.907 995.8 698.347 995.8H661.267V979.96ZM676.867 987.88H700.147L734.107 1030H710.227L676.867 987.88ZM868.5 991C868.42 996.44 867.34 1001.64 865.26 1006.6C863.26 1011.48 860.38 1015.84 856.62 1019.68C852.86 1023.44 848.22 1026.4 842.7 1028.56C837.18 1030.72 830.78 1031.8 823.5 1031.8C816.46 1031.8 809.86 1030.76 803.7 1028.68C797.62 1026.52 792.26 1023.44 787.62 1019.44C783.06 1015.44 779.5 1010.56 776.94 1004.8C774.38 998.96 773.1 992.36 773.1 985C773.1 977.64 774.38 971.08 776.94 965.32C779.58 959.48 783.22 954.56 787.86 950.56C792.5 946.56 797.94 943.52 804.18 941.44C810.42 939.28 817.22 938.2 824.58 938.2C834.18 938.2 842.5 939.72 849.54 942.76C856.58 945.72 862.26 949.84 866.58 955.12C870.98 960.4 873.7 966.44 874.74 973.24H854.22C853.42 969.56 851.66 966.4 848.94 963.76C846.3 961.12 842.9 959.08 838.74 957.64C834.66 956.2 829.94 955.48 824.58 955.48C818.26 955.48 812.78 956.64 808.14 958.96C803.58 961.2 800.02 964.52 797.46 968.92C794.98 973.32 793.74 978.68 793.74 985C793.74 991.32 795.06 996.72 797.7 1001.2C800.34 1005.68 804.1 1009.12 808.98 1011.52C813.86 1013.84 819.62 1015 826.26 1015C832.74 1015 838.42 1014 843.3 1012C848.18 1009.92 852.02 1007.04 854.82 1003.36C857.7 999.6 859.34 995.16 859.74 990.04L868.5 991ZM829.02 999.28V984.52H875.7V1030H861.06L858.3 993.52L862.5 999.28H829.02ZM940.149 1031.8C929.669 1031.8 920.469 1029.84 912.549 1025.92C904.709 1022 898.589 1016.56 894.189 1009.6C889.789 1002.56 887.589 994.36 887.589 985C887.589 975.64 889.789 967.48 894.189 960.52C898.589 953.48 904.709 948 912.549 944.08C920.469 940.16 929.669 938.2 940.149 938.2C950.629 938.2 959.789 940.16 967.629 944.08C975.549 948 981.709 953.48 986.109 960.52C990.509 967.48 992.709 975.64 992.709 985C992.709 994.36 990.509 1002.56 986.109 1009.6C981.709 1016.56 975.549 1022 967.629 1025.92C959.789 1029.84 950.629 1031.8 940.149 1031.8ZM940.149 1013.68C946.709 1013.68 952.349 1012.52 957.069 1010.2C961.869 1007.88 965.549 1004.56 968.109 1000.24C970.749 995.92 972.069 990.84 972.069 985C972.069 979.16 970.749 974.08 968.109 969.76C965.549 965.44 961.869 962.12 957.069 959.8C952.349 957.48 946.709 956.32 940.149 956.32C933.669 956.32 928.029 957.48 923.229 959.8C918.429 962.12 914.709 965.44 912.069 969.76C909.509 974.08 908.229 979.16 908.229 985C908.229 990.84 909.509 995.92 912.069 1000.24C914.709 1004.56 918.429 1007.88 923.229 1010.2C928.029 1012.52 933.669 1013.68 940.149 1013.68ZM1080.22 977.2V992.8H1015.78V977.2H1080.22ZM1029.46 985L1023.46 1023.16L1014.58 1013.08H1083.94V1030H1002.94L1009.9 985L1002.94 940H1083.34V956.92H1014.58L1023.46 946.84L1029.46 985ZM1094.65 1000.6H1115.29C1115.77 1003.64 1117.09 1006.32 1119.25 1008.64C1121.49 1010.88 1124.45 1012.64 1128.13 1013.92C1131.89 1015.12 1136.21 1015.72 1141.09 1015.72C1148.21 1015.72 1153.81 1014.72 1157.89 1012.72C1162.05 1010.64 1164.13 1007.76 1164.13 1004.08C1164.13 1001.2 1162.93 999 1160.53 997.48C1158.21 995.88 1153.85 994.72 1147.45 994L1129.33 991.96C1117.65 990.68 1109.17 987.96 1103.89 983.8C1098.69 979.56 1096.09 973.68 1096.09 966.16C1096.09 960.24 1097.81 955.2 1101.25 951.04C1104.77 946.88 1109.69 943.72 1116.01 941.56C1122.33 939.32 1129.77 938.2 1138.33 938.2C1146.65 938.2 1154.05 939.44 1160.53 941.92C1167.01 944.32 1172.17 947.72 1176.01 952.12C1179.85 956.44 1181.93 961.52 1182.25 967.36H1161.61C1161.21 964.72 1160.01 962.44 1158.01 960.52C1156.09 958.52 1153.41 957 1149.97 955.96C1146.53 954.84 1142.49 954.28 1137.85 954.28C1131.37 954.28 1126.21 955.24 1122.37 957.16C1118.53 959.08 1116.61 961.8 1116.61 965.32C1116.61 968.04 1117.73 970.16 1119.97 971.68C1122.29 973.12 1126.33 974.2 1132.09 974.92L1150.93 977.2C1159.25 978.08 1165.85 979.52 1170.73 981.52C1175.69 983.44 1179.21 986.04 1181.29 989.32C1183.45 992.6 1184.53 996.76 1184.53 1001.8C1184.53 1007.8 1182.69 1013.08 1179.01 1017.64C1175.41 1022.12 1170.33 1025.6 1163.77 1028.08C1157.21 1030.56 1149.53 1031.8 1140.73 1031.8C1131.77 1031.8 1123.89 1030.52 1117.09 1027.96C1110.29 1025.32 1104.93 1021.68 1101.01 1017.04C1097.09 1012.32 1094.97 1006.84 1094.65 1000.6ZM1277.06 1031.8C1266.58 1031.8 1257.38 1029.84 1249.46 1025.92C1241.62 1022 1235.5 1016.56 1231.1 1009.6C1226.7 1002.56 1224.5 994.36 1224.5 985C1224.5 975.64 1226.7 967.48 1231.1 960.52C1235.5 953.48 1241.62 948 1249.46 944.08C1257.38 940.16 1266.58 938.2 1277.06 938.2C1287.54 938.2 1296.7 940.16 1304.54 944.08C1312.46 948 1318.62 953.48 1323.02 960.52C1327.42 967.48 1329.62 975.64 1329.62 985C1329.62 994.36 1327.42 1002.56 1323.02 1009.6C1318.62 1016.56 1312.46 1022 1304.54 1025.92C1296.7 1029.84 1287.54 1031.8 1277.06 1031.8ZM1277.06 1013.68C1283.62 1013.68 1289.26 1012.52 1293.98 1010.2C1298.78 1007.88 1302.46 1004.56 1305.02 1000.24C1307.66 995.92 1308.98 990.84 1308.98 985C1308.98 979.16 1307.66 974.08 1305.02 969.76C1302.46 965.44 1298.78 962.12 1293.98 959.8C1289.26 957.48 1283.62 956.32 1277.06 956.32C1270.58 956.32 1264.94 957.48 1260.14 959.8C1255.34 962.12 1251.62 965.44 1248.98 969.76C1246.42 974.08 1245.14 979.16 1245.14 985C1245.14 990.84 1246.42 995.92 1248.98 1000.24C1251.62 1004.56 1255.34 1007.88 1260.14 1010.2C1264.94 1012.52 1270.58 1013.68 1277.06 1013.68ZM1353.51 978.16H1418.55V995.56H1353.51V978.16ZM1420.59 940V957.52H1353.75L1364.07 947.08V1030H1343.67V940H1420.59ZM1444.1 978.16H1509.14V995.56H1444.1V978.16ZM1511.18 940V957.52H1444.34L1454.66 947.08V1030H1434.26V940H1511.18Z" fill="url(#paint1_linear_501_284)"/>
<defs>
<linearGradient id="paint0_linear_501_284" x1="1187" y1="643" x2="1187" y2="829" gradientUnits="userSpaceOnUse">
<stop stop-color="#FF6CA1"/>
<stop offset="1" stop-color="#FF7E6E"/>
</linearGradient>
<linearGradient id="paint1_linear_501_284" x1="229" y1="984" x2="1516" y2="984" gradientUnits="userSpaceOnUse">
<stop stop-color="#FF6CA1"/>
<stop offset="0.409768" stop-color="#FF7587"/>
<stop offset="1" stop-color="#FF7E6E"/>
</linearGradient>
</defs>
</svg>
