<svg width="1287" height="774" viewBox="0 0 1287 774" fill="none" xmlns="http://www.w3.org/2000/svg">
<rect x="658" width="170" height="600" rx="70" fill="#585858"/>
<rect x="443" width="170" height="600" rx="70" fill="#585858"/>
<rect x="1258" y="430" width="170" height="600" rx="70" transform="rotate(90 1258 430)" fill="#585858"/>
<rect x="613" y="430" width="170" height="600" rx="70" transform="rotate(90 613 430)" fill="#585858"/>
<rect x="1274" y="600" width="170" height="600" rx="70" transform="rotate(-180 1274 600)" fill="#585858"/>
<rect x="873" y="170" width="170" height="401" rx="70" transform="rotate(-90 873 170)" fill="#585858"/>
<rect x="98" y="385" width="170" height="300" rx="70" transform="rotate(-90 98 385)" fill="#585858"/>
<rect x="873" y="385" width="170" height="186" rx="70" transform="rotate(-90 873 385)" fill="url(#paint0_linear_299_232)"/>
<path d="M92.64 758.56L85.56 759.64V682H105.36V772H79.56L21.96 694.36L28.92 693.28V772H9.24V682H35.64L92.64 758.56ZM198.132 719.2V734.8H133.692V719.2H198.132ZM147.372 727L141.372 765.16L132.492 755.08H201.852V772H120.852L127.812 727L120.852 682H201.252V698.92H132.492L141.372 688.84L147.372 727ZM265.416 763H256.416L293.136 682H314.736L272.016 772H249.096L206.496 682H228.336L265.416 763ZM398.874 719.2V734.8H334.434V719.2H398.874ZM348.114 727L342.114 765.16L333.234 755.08H402.594V772H321.594L328.554 727L321.594 682H401.994V698.92H333.234L342.114 688.84L348.114 727ZM432.267 721.96H466.947C471.507 721.96 475.107 720.92 477.747 718.84C480.467 716.68 481.827 713.72 481.827 709.96C481.827 706.2 480.467 703.28 477.747 701.2C475.107 699.12 471.507 698.08 466.947 698.08H429.267L438.507 687.64V772H418.107V682H469.347C475.907 682 481.667 683.2 486.627 685.6C491.587 687.92 495.467 691.16 498.267 695.32C501.067 699.48 502.467 704.36 502.467 709.96C502.467 715.48 501.067 720.32 498.267 724.48C495.467 728.64 491.587 731.92 486.627 734.32C481.667 736.64 475.907 737.8 469.347 737.8H432.267V721.96ZM447.867 729.88H471.147L505.107 772H481.227L447.867 729.88ZM639.5 733C639.42 738.44 638.34 743.64 636.26 748.6C634.26 753.48 631.38 757.84 627.62 761.68C623.86 765.44 619.22 768.4 613.7 770.56C608.18 772.72 601.78 773.8 594.5 773.8C587.46 773.8 580.86 772.76 574.7 770.68C568.62 768.52 563.26 765.44 558.62 761.44C554.06 757.44 550.5 752.56 547.94 746.8C545.38 740.96 544.1 734.36 544.1 727C544.1 719.64 545.38 713.08 547.94 707.32C550.58 701.48 554.22 696.56 558.86 692.56C563.5 688.56 568.94 685.52 575.18 683.44C581.42 681.28 588.22 680.2 595.58 680.2C605.18 680.2 613.5 681.72 620.54 684.76C627.58 687.72 633.26 691.84 637.58 697.12C641.98 702.4 644.7 708.44 645.74 715.24H625.22C624.42 711.56 622.66 708.4 619.94 705.76C617.3 703.12 613.9 701.08 609.74 699.64C605.66 698.2 600.94 697.48 595.58 697.48C589.26 697.48 583.78 698.64 579.14 700.96C574.58 703.2 571.02 706.52 568.46 710.92C565.98 715.32 564.74 720.68 564.74 727C564.74 733.32 566.06 738.72 568.7 743.2C571.34 747.68 575.1 751.12 579.98 753.52C584.86 755.84 590.62 757 597.26 757C603.74 757 609.42 756 614.3 754C619.18 751.92 623.02 749.04 625.82 745.36C628.7 741.6 630.34 737.16 630.74 732.04L639.5 733ZM600.02 741.28V726.52H646.7V772H632.06L629.3 735.52L633.5 741.28H600.02ZM711.149 773.8C700.669 773.8 691.469 771.84 683.549 767.92C675.709 764 669.589 758.56 665.189 751.6C660.789 744.56 658.589 736.36 658.589 727C658.589 717.64 660.789 709.48 665.189 702.52C669.589 695.48 675.709 690 683.549 686.08C691.469 682.16 700.669 680.2 711.149 680.2C721.629 680.2 730.789 682.16 738.629 686.08C746.549 690 752.709 695.48 757.109 702.52C761.509 709.48 763.709 717.64 763.709 727C763.709 736.36 761.509 744.56 757.109 751.6C752.709 758.56 746.549 764 738.629 767.92C730.789 771.84 721.629 773.8 711.149 773.8ZM711.149 755.68C717.709 755.68 723.349 754.52 728.069 752.2C732.869 749.88 736.549 746.56 739.109 742.24C741.749 737.92 743.069 732.84 743.069 727C743.069 721.16 741.749 716.08 739.109 711.76C736.549 707.44 732.869 704.12 728.069 701.8C723.349 699.48 717.709 698.32 711.149 698.32C704.669 698.32 699.029 699.48 694.229 701.8C689.429 704.12 685.709 707.44 683.069 711.76C680.509 716.08 679.229 721.16 679.229 727C679.229 732.84 680.509 737.92 683.069 742.24C685.709 746.56 689.429 749.88 694.229 752.2C699.029 754.52 704.669 755.68 711.149 755.68ZM851.218 719.2V734.8H786.778V719.2H851.218ZM800.458 727L794.458 765.16L785.578 755.08H854.938V772H773.938L780.898 727L773.938 682H854.338V698.92H785.578L794.458 688.84L800.458 727ZM865.651 742.6H886.291C886.771 745.64 888.091 748.32 890.251 750.64C892.491 752.88 895.451 754.64 899.131 755.92C902.891 757.12 907.211 757.72 912.091 757.72C919.211 757.72 924.811 756.72 928.891 754.72C933.051 752.64 935.131 749.76 935.131 746.08C935.131 743.2 933.931 741 931.531 739.48C929.211 737.88 924.851 736.72 918.451 736L900.331 733.96C888.651 732.68 880.171 729.96 874.891 725.8C869.691 721.56 867.091 715.68 867.091 708.16C867.091 702.24 868.811 697.2 872.251 693.04C875.771 688.88 880.691 685.72 887.011 683.56C893.331 681.32 900.771 680.2 909.331 680.2C917.651 680.2 925.051 681.44 931.531 683.92C938.011 686.32 943.171 689.72 947.011 694.12C950.851 698.44 952.931 703.52 953.251 709.36H932.611C932.211 706.72 931.011 704.44 929.011 702.52C927.091 700.52 924.411 699 920.971 697.96C917.531 696.84 913.491 696.28 908.851 696.28C902.371 696.28 897.211 697.24 893.371 699.16C889.531 701.08 887.611 703.8 887.611 707.32C887.611 710.04 888.731 712.16 890.971 713.68C893.291 715.12 897.331 716.2 903.091 716.92L921.931 719.2C930.251 720.08 936.851 721.52 941.731 723.52C946.691 725.44 950.211 728.04 952.291 731.32C954.451 734.6 955.531 738.76 955.531 743.8C955.531 749.8 953.691 755.08 950.011 759.64C946.411 764.12 941.331 767.6 934.771 770.08C928.211 772.56 920.531 773.8 911.731 773.8C902.771 773.8 894.891 772.52 888.091 769.96C881.291 767.32 875.931 763.68 872.011 759.04C868.091 754.32 865.971 748.84 865.651 742.6ZM1048.06 773.8C1037.58 773.8 1028.38 771.84 1020.46 767.92C1012.62 764 1006.5 758.56 1002.1 751.6C997.703 744.56 995.503 736.36 995.503 727C995.503 717.64 997.703 709.48 1002.1 702.52C1006.5 695.48 1012.62 690 1020.46 686.08C1028.38 682.16 1037.58 680.2 1048.06 680.2C1058.54 680.2 1067.7 682.16 1075.54 686.08C1083.46 690 1089.62 695.48 1094.02 702.52C1098.42 709.48 1100.62 717.64 1100.62 727C1100.62 736.36 1098.42 744.56 1094.02 751.6C1089.62 758.56 1083.46 764 1075.54 767.92C1067.7 771.84 1058.54 773.8 1048.06 773.8ZM1048.06 755.68C1054.62 755.68 1060.26 754.52 1064.98 752.2C1069.78 749.88 1073.46 746.56 1076.02 742.24C1078.66 737.92 1079.98 732.84 1079.98 727C1079.98 721.16 1078.66 716.08 1076.02 711.76C1073.46 707.44 1069.78 704.12 1064.98 701.8C1060.26 699.48 1054.62 698.32 1048.06 698.32C1041.58 698.32 1035.94 699.48 1031.14 701.8C1026.34 704.12 1022.62 707.44 1019.98 711.76C1017.42 716.08 1016.14 721.16 1016.14 727C1016.14 732.84 1017.42 737.92 1019.98 742.24C1022.62 746.56 1026.34 749.88 1031.14 752.2C1035.94 754.52 1041.58 755.68 1048.06 755.68ZM1124.51 720.16H1189.55V737.56H1124.51V720.16ZM1191.59 682V699.52H1124.75L1135.07 689.08V772H1114.67V682H1191.59ZM1215.1 720.16H1280.14V737.56H1215.1V720.16ZM1282.18 682V699.52H1215.34L1225.66 689.08V772H1205.26V682H1282.18Z" fill="url(#paint1_linear_299_232)"/>
<defs>
<linearGradient id="paint0_linear_299_232" x1="958" y1="385" x2="958" y2="571" gradientUnits="userSpaceOnUse">
<stop stop-color="#FF6CA1"/>
<stop offset="1" stop-color="#FF7E6E"/>
</linearGradient>
<linearGradient id="paint1_linear_299_232" x1="6.15725e-06" y1="726" x2="1287" y2="726" gradientUnits="userSpaceOnUse">
<stop stop-color="#FF6CA1"/>
<stop offset="0.409768" stop-color="#FF7587"/>
<stop offset="1" stop-color="#FF7E6E"/>
</linearGradient>
</defs>
</svg>
